<svg width="201" height="58" viewBox="0 0 201 58" fill="none" xmlns="http://www.w3.org/2000/svg">
<path fill-rule="evenodd" clip-rule="evenodd" d="M16.9895 28.0561L17.5705 27.1094L19.972 23.198C20.3429 22.5737 20.6822 22.0203 21.4132 21.682C23.8929 20.5335 25.7352 22.8636 26.765 24.7626C26.9058 25.0221 27.031 25.2736 27.141 25.5071H27.1413L35.6283 39.4869L36.1134 40.2782C36.7223 41.1871 37.2563 42.2736 37.8045 43.1201C39.3423 45.494 39.8036 46.5075 43.7848 46.2685C46.8202 46.086 49.8931 46.2999 52.9389 46.2252C56.6402 46.1348 56.2183 43.4099 54.9033 41.157L50.0642 33.2039L48.8892 31.2727L37.6857 12.8764L37.2785 12.2114L32.0327 3.63982C31.2121 2.2303 30.4116 0.163344 28.4853 0.0258563C25.7081 -0.172598 24.6709 2.47909 22.9398 5.39566L13.3081 21.2625L10.7528 25.4719L3.6109 37.2297C3.45245 37.3833 2.78618 38.2974 2.11107 39.4126C1.31376 40.7303 0.503418 42.3291 0.503418 43.2884C0.503418 44.984 2.16302 46.3092 3.84431 46.3223C5.53133 46.3359 6.10272 45.4203 6.73887 44.5292L16.9895 28.0561Z" fill="#1E2F67"/>
<path fill-rule="evenodd" clip-rule="evenodd" d="M29.2197 28.9712C32.1925 27.3712 35.3085 25.8983 38.6123 24.5942C38.9279 24.4701 39.246 24.3464 39.5654 24.225C40.8296 23.7442 42.2918 23.2458 43.7313 22.8467L45.637 25.9759L45.5341 26.0185C41.958 27.4972 37.4336 30.2752 32.2484 33.9596L29.2197 28.9712Z" fill="#1E2F67"/>
<path fill-rule="evenodd" clip-rule="evenodd" d="M2.60529 38.6268C2.89022 38.2173 3.52903 37.3092 3.61107 37.2296L4.30663 36.0842C4.95803 36.8593 5.69138 38.075 6.13589 37.7624C6.7504 37.3305 5.9406 39.9703 6.63977 39.6675C7.5925 39.2549 9.14108 38.7522 10.3199 38.7744L7.02787 44.0649L6.44127 44.9448C6.38748 44.8753 2.81643 39.0964 2.60529 38.6268Z" fill="#1E2F67"/>
<path fill-rule="evenodd" clip-rule="evenodd" d="M5.99123 41.3457C4.4467 39.228 3.07929 37.2549 2.31977 34.8269C1.69133 32.8186 1.54153 32.964 3.07148 31.8743C5.2729 30.3066 7.56332 28.5298 9.84889 26.9212C10.464 26.4887 10.9694 26.1365 11.6695 25.8332C12.4655 25.4876 12.9122 25.5206 13.216 26.1764C13.5082 26.8078 13.7249 27.6235 14.0471 28.3467C14.3332 28.989 14.6199 29.6316 14.9059 30.2741C15.3639 31.301 15.5137 31.9742 16.4431 32.694C17.0046 33.1288 17.5777 33.3125 18.1671 33.1565C18.8794 32.9677 24.6218 28.9581 25.8612 28.2487C26.1954 28.0576 26.5314 27.8676 26.8691 27.6795C30.2085 25.8202 33.7251 24.1176 37.4846 22.6337C37.7997 22.5094 38.118 22.3856 38.4376 22.2641C40.3997 21.5176 42.839 20.7297 44.9317 20.334C45.4487 20.2364 45.9209 20.181 46.3432 20.1632C49.5012 20.0298 49.8511 21.9816 45.0915 23.7859C44.8675 23.8708 44.6383 23.9616 44.4061 24.0576C39.01 26.2886 31.4556 31.4784 22.7278 38.2752C20.4138 40.192 18.1 42.1086 15.7859 44.0254C13.7665 45.4151 11.6936 46.0204 9.50306 44.8794C7.94273 44.0678 6.99898 42.727 5.99123 41.3457Z" fill="#A1C93A"/>
<path fill-rule="evenodd" clip-rule="evenodd" d="M62.6947 11.8216C63.8702 11.8216 64.889 11.4383 65.751 10.6718C66.613 9.9053 67.044 8.87051 67.044 7.56745C67.044 6.22607 66.613 5.17212 65.751 4.40562C64.889 3.63911 63.8702 3.25586 62.6947 3.25586C61.4801 3.25586 60.4417 3.63911 59.5797 4.40562C58.7177 5.17212 58.2867 6.22607 58.2867 7.56745C58.2867 8.87051 58.7177 9.9053 59.5797 10.6718C60.4417 11.4383 61.4801 11.8216 62.6947 11.8216ZM66.28 46.4293V16.3631H59.1683V46.4293H66.28ZM77.5613 22.3419V46.4293H70.4496V17.8003C71.821 17.3021 73.5352 16.8326 75.5923 16.3918C77.6494 15.9511 79.9318 15.7307 82.4395 15.7307C82.9097 15.7307 83.4583 15.7595 84.0852 15.817C84.7121 15.8745 85.339 15.9511 85.966 16.0469C86.5929 16.1427 87.2002 16.2577 87.788 16.3918C88.3757 16.526 88.8459 16.6505 89.1985 16.7655L87.9643 22.6293C87.3765 22.4377 86.5635 22.2365 85.5252 22.0257C84.4868 21.8149 83.2819 21.7095 81.9105 21.7095C81.1269 21.7095 80.2943 21.7861 79.4126 21.9394C78.531 22.0927 77.9139 22.2269 77.5613 22.3419ZM102.302 47.2341C104.496 47.2341 106.504 46.8509 108.326 46.0844C110.148 45.3179 111.706 44.2447 112.999 42.865C114.292 41.4853 115.291 39.8182 115.996 37.8636C116.702 35.909 117.054 33.7436 117.054 31.3675C117.054 28.9913 116.692 26.8355 115.967 24.9001C115.242 22.9646 114.233 21.3071 112.94 19.9274C111.647 18.5476 110.089 17.4841 108.267 16.7368C106.445 15.9894 104.457 15.6158 102.302 15.6158C100.147 15.6158 98.168 15.9894 96.3656 16.7368C94.5632 17.4841 93.0057 18.5476 91.6931 19.9274C90.3805 21.3071 89.3617 22.9646 88.6368 24.9001C87.9119 26.8355 87.5495 28.9913 87.5495 31.3675C87.5495 33.7436 87.9119 35.909 88.6368 37.8636C89.3617 39.8182 90.3707 41.4853 91.6637 42.865C92.9567 44.2447 94.5044 45.3179 96.3069 46.0844C98.1093 46.8509 100.108 47.2341 102.302 47.2341ZM96.8064 38.5534C98.1191 40.3164 99.9509 41.1979 102.302 41.1979C104.653 41.1979 106.485 40.3164 107.797 38.5534C109.11 36.7905 109.766 34.3952 109.766 31.3675C109.766 28.3781 109.11 26.0115 107.797 24.2677C106.485 22.5239 104.653 21.652 102.302 21.652C99.9509 21.652 98.1191 22.5239 96.8064 24.2677C95.4938 26.0115 94.8375 28.3781 94.8375 31.3675C94.8375 34.3952 95.4938 36.7905 96.8064 38.5534Z" fill="#1E2F67"/>
<path fill-rule="evenodd" clip-rule="evenodd" d="M126.631 45.3945V57.0645H119.519V17.3404C120.969 16.9571 122.752 16.593 124.868 16.2481C126.984 15.9032 129.217 15.7307 131.568 15.7307C133.997 15.7307 136.172 16.0948 138.092 16.823C140.012 17.5512 141.648 18.5955 143 19.9561C144.351 21.3166 145.39 22.9646 146.115 24.9C146.84 26.8355 147.202 29.0104 147.202 31.4249C147.202 33.7244 146.898 35.8323 146.291 37.7486C145.684 39.6649 144.812 41.3128 143.675 42.6925C142.539 44.0723 141.119 45.1454 139.414 45.9119C137.71 46.6784 135.78 47.0616 133.625 47.0616C132.175 47.0616 130.843 46.8892 129.628 46.5442C128.414 46.1993 127.415 45.8161 126.631 45.3945ZM129.129 40.5368C130.167 40.9008 131.274 41.0829 132.45 41.0829C135.036 41.0829 136.926 40.2206 138.121 38.4959C139.316 36.7713 139.914 34.4526 139.914 31.5399C139.914 28.4355 139.199 26.0211 137.769 24.2964C136.339 22.5718 134.037 21.7095 130.863 21.7095C130.197 21.7095 129.501 21.7382 128.776 21.7957C128.051 21.8532 127.336 21.9777 126.631 22.1694V39.3582C127.258 39.7798 128.091 40.1727 129.129 40.5368Z" fill="#A1C93A"/>
<path fill-rule="evenodd" clip-rule="evenodd" d="M167.388 46.573C165.174 46.8987 162.676 47.0616 159.894 47.0616C158.052 47.0616 156.367 46.8892 154.839 46.5442C153.311 46.1993 152.008 45.6436 150.931 44.8771C149.853 44.1106 149.011 43.1141 148.403 41.8877C147.796 40.6613 147.492 39.1474 147.492 37.3462C147.492 35.6215 147.835 34.1652 148.521 32.9771C149.207 31.789 150.137 30.8213 151.313 30.0739C152.488 29.3266 153.85 28.79 155.398 28.4643C156.945 28.1385 158.562 27.9756 160.246 27.9756C161.03 27.9756 161.853 28.0235 162.715 28.1193C163.577 28.2152 164.498 28.378 165.477 28.608V27.4582C165.477 26.6534 165.379 25.8869 165.183 25.1587C164.988 24.4305 164.645 23.7886 164.155 23.2329C163.665 22.6772 163.019 22.246 162.215 21.9394C161.412 21.6328 160.403 21.4795 159.189 21.4795C157.543 21.4795 156.034 21.5945 154.663 21.8244C153.291 22.0544 152.175 22.3226 151.313 22.6292L150.431 16.9954C151.332 16.6888 152.645 16.3822 154.369 16.0756C156.093 15.769 157.935 15.6157 159.894 15.6157C162.245 15.6157 164.223 15.9032 165.83 16.478C167.436 17.0529 168.72 17.8578 169.68 18.8925C170.64 19.9273 171.325 21.1825 171.737 22.658C172.148 24.1335 172.354 25.7528 172.354 27.5157V45.7394C171.257 45.9693 169.601 46.2472 167.388 46.573ZM156.191 40.5942C157.249 41.2266 158.679 41.5428 160.482 41.5428C162.676 41.5428 164.341 41.4278 165.477 41.1978V33.4945C165.086 33.3795 164.517 33.2645 163.773 33.1495C163.028 33.0346 162.206 32.9771 161.304 32.9771C160.521 32.9771 159.727 33.0346 158.924 33.1495C158.121 33.2645 157.396 33.4753 156.749 33.7819C156.103 34.0885 155.584 34.5197 155.192 35.0754C154.8 35.6311 154.604 36.3305 154.604 37.1737C154.604 38.8217 155.133 39.9619 156.191 40.5942Z" fill="#A1C93A"/>
<path fill-rule="evenodd" clip-rule="evenodd" d="M176.524 57.1795C178.169 57.1795 179.619 56.9974 180.873 56.6333C182.127 56.2692 183.263 55.6848 184.282 54.8799C185.3 54.0751 186.221 53.0595 187.044 51.8331C187.867 50.6067 188.67 49.1312 189.454 47.4065C193.646 38.1318 197.33 27.784 200.503 16.363H193.157C192.255 19.9656 191.256 23.6927 190.159 27.5444C189.062 31.3961 187.887 35.0275 186.633 38.4384C185.888 36.7904 185.144 35.0083 184.399 33.092C183.655 31.1758 182.95 29.2499 182.283 27.3145C181.617 25.3791 181 23.4724 180.432 21.5944C179.864 19.7165 179.384 17.9727 178.992 16.363H171.41C173.017 21.9585 174.848 27.2474 176.906 32.2297C178.963 37.212 181.108 41.811 183.341 46.0268C182.558 47.8281 181.647 49.1599 180.608 50.0222C179.57 50.8845 178.13 51.3157 176.288 51.3157C174.917 51.3157 173.526 51.0474 172.115 50.5109L170.822 56.0872C171.371 56.3555 172.184 56.6046 173.262 56.8345C174.339 57.0645 175.426 57.1795 176.524 57.1795Z" fill="#A1C93A"/>
</svg>
