<svg width="166" height="55" viewBox="0 0 166 55" fill="none" xmlns="http://www.w3.org/2000/svg">
<path d="M158.016 54.9321H7.60249C3.57491 54.9324 0.308655 51.636 0.308655 47.571V7.82647C0.308655 3.76213 3.57491 0.466064 7.60249 0.466064H158.016C162.043 0.466064 165.308 3.76213 165.308 7.82647V47.571C165.309 51.6357 162.044 54.9321 158.016 54.9321Z" fill="#1E2F67"/>
<path fill-rule="evenodd" clip-rule="evenodd" d="M72.4745 11.6797H73.4234V16.6933C73.4234 16.8607 73.4665 16.9921 73.5528 17.0873C73.6391 17.1826 73.7598 17.2302 73.9151 17.2302C73.9784 17.2302 74.0517 17.2187 74.1351 17.1956C74.2185 17.1725 74.2975 17.1465 74.3723 17.1176L74.5103 17.8623C74.3723 17.9258 74.2084 17.9763 74.0186 18.0139C73.8288 18.0514 73.6592 18.0701 73.5097 18.0701C73.1819 18.0701 72.9274 17.9807 72.7463 17.8017C72.5651 17.6227 72.4745 17.3687 72.4745 17.0397V11.6797ZM49.9689 11.8529V18.0009H52.1427C52.597 18.0009 53.0082 17.9273 53.3762 17.7801C53.7443 17.6328 54.0577 17.425 54.3165 17.1566C54.5752 16.8882 54.7751 16.5649 54.916 16.1868C55.0569 15.8087 55.1273 15.3858 55.1273 14.9182C55.1273 14.4968 55.0641 14.0999 54.9375 13.7276C54.811 13.3552 54.6227 13.0305 54.3725 12.7534C54.1224 12.4763 53.8118 12.257 53.4409 12.0953C53.07 11.9337 52.6372 11.8529 52.1427 11.8529H49.9689ZM54.0102 14.0263C54.0994 14.2976 54.1439 14.5949 54.1439 14.9182C54.1439 15.2357 54.1008 15.5301 54.0145 15.8014C53.9283 16.0728 53.8003 16.308 53.6307 16.5072C53.461 16.7063 53.2511 16.8622 53.001 16.9748C52.7508 17.0873 52.4647 17.1436 52.1427 17.1436H50.935V12.7101H52.1427C52.459 12.7101 52.7407 12.765 52.988 12.8746C53.2353 12.9843 53.4452 13.1359 53.6177 13.3293C53.7903 13.5226 53.9211 13.755 54.0102 14.0263ZM57.8273 18.0875C57.4708 18.0875 57.1502 18.024 56.8655 17.897C56.5808 17.77 56.3379 17.5997 56.1366 17.3861C55.9353 17.1725 55.78 16.9228 55.6708 16.637C55.5615 16.3513 55.5069 16.0526 55.5069 15.7408C55.5069 15.4291 55.5615 15.1304 55.6708 14.8446C55.78 14.5589 55.9367 14.3092 56.1409 14.0956C56.345 13.882 56.5895 13.7117 56.8741 13.5847C57.1588 13.4577 57.4765 13.3942 57.8273 13.3942C58.1781 13.3942 58.4958 13.4577 58.7805 13.5847C59.0652 13.7117 59.3096 13.882 59.5137 14.0956C59.7179 14.3092 59.8746 14.5589 59.9838 14.8446C60.0931 15.1304 60.1477 15.4291 60.1477 15.7408C60.1477 16.0526 60.0931 16.3513 59.9838 16.637C59.8746 16.9228 59.7179 17.1725 59.5137 17.3861C59.3096 17.5997 59.0652 17.77 58.7805 17.897C58.4958 18.024 58.1781 18.0875 57.8273 18.0875ZM56.5851 16.3556C56.5161 16.1709 56.4816 15.9689 56.4816 15.7495C56.4816 15.5359 56.5176 15.3353 56.5895 15.1477C56.6613 14.9601 56.7577 14.797 56.8784 14.6584C56.9992 14.5199 57.1415 14.4102 57.3054 14.3294C57.4693 14.2486 57.6433 14.2082 57.8273 14.2082C58.0171 14.2082 58.1939 14.2471 58.3578 14.3251C58.5217 14.403 58.664 14.5112 58.7848 14.6498C58.9056 14.7883 59.0005 14.9514 59.0695 15.139C59.1385 15.3266 59.173 15.5272 59.173 15.7408C59.173 15.9602 59.1385 16.1622 59.0695 16.347C59.0005 16.5317 58.9056 16.6933 58.7848 16.8319C58.664 16.9704 58.5217 17.0787 58.3578 17.1566C58.1939 17.2345 58.0171 17.2735 57.8273 17.2735C57.6375 17.2735 57.4607 17.2345 57.2968 17.1566C57.1329 17.0787 56.9906 16.9719 56.8698 16.8362C56.749 16.7005 56.6541 16.5404 56.5851 16.3556ZM66.2292 13.4721H67.1349L65.2372 18.0009H64.4522L63.6155 15.8967L62.7787 18.0009H61.9937L60.0874 13.4721H60.9931L62.4509 17.083L63.1065 15.4031L62.3215 13.4808H63.0979L63.6155 14.9009L64.1244 13.4808H64.9008L64.1244 15.4031L64.78 17.083L66.2292 13.4721ZM70.6372 18.0009H71.586V15.2386C71.586 14.9904 71.5659 14.7551 71.5257 14.5329C71.4854 14.3106 71.415 14.1144 71.3143 13.9441C71.2137 13.7738 71.0771 13.6395 70.9046 13.5414C70.732 13.4433 70.5106 13.3942 70.2404 13.3942C69.8436 13.3942 69.4813 13.4822 69.1535 13.6583C68.8257 13.8344 68.5755 14.0754 68.403 14.3813V13.4721H67.5404V18.0009H68.4892V15.3079C68.541 15.152 68.6143 15.0091 68.7092 14.8792C68.8041 14.7494 68.9119 14.6368 69.0327 14.5415C69.1535 14.4463 69.2829 14.3727 69.4209 14.3207C69.5589 14.2688 69.6969 14.2428 69.8349 14.2428C70.0995 14.2428 70.2993 14.3395 70.4344 14.5329C70.5696 14.7263 70.6372 15.0365 70.6372 15.4637V18.0009ZM75.9034 17.897C76.1881 18.024 76.5087 18.0875 76.8653 18.0875C77.2161 18.0875 77.5338 18.024 77.8184 17.897C78.1031 17.77 78.3475 17.5997 78.5517 17.3861C78.7558 17.1725 78.9125 16.9228 79.0218 16.637C79.1311 16.3513 79.1857 16.0526 79.1857 15.7408C79.1857 15.4291 79.1311 15.1304 79.0218 14.8446C78.9125 14.5589 78.7558 14.3092 78.5517 14.0956C78.3475 13.882 78.1031 13.7117 77.8184 13.5847C77.5338 13.4577 77.2161 13.3942 76.8653 13.3942C76.5145 13.3942 76.1967 13.4577 75.9121 13.5847C75.6274 13.7117 75.383 13.882 75.1788 14.0956C74.9747 14.3092 74.818 14.5589 74.7087 14.8446C74.5994 15.1304 74.5448 15.4291 74.5448 15.7408C74.5448 16.0526 74.5994 16.3513 74.7087 16.637C74.818 16.9228 74.9732 17.1725 75.1745 17.3861C75.3758 17.5997 75.6188 17.77 75.9034 17.897ZM75.5196 15.7495C75.5196 15.9689 75.5541 16.1709 75.6231 16.3556C75.6921 16.5404 75.787 16.7005 75.9077 16.8362C76.0285 16.9719 76.1708 17.0787 76.3347 17.1566C76.4986 17.2345 76.6755 17.2735 76.8653 17.2735C77.055 17.2735 77.2319 17.2345 77.3958 17.1566C77.5597 17.0787 77.702 16.9704 77.8228 16.8319C77.9435 16.6933 78.0384 16.5317 78.1074 16.347C78.1764 16.1622 78.2109 15.9602 78.2109 15.7408C78.2109 15.5272 78.1764 15.3266 78.1074 15.139C78.0384 14.9514 77.9435 14.7883 77.8228 14.6498C77.702 14.5112 77.5597 14.403 77.3958 14.3251C77.2319 14.2471 77.055 14.2082 76.8653 14.2082C76.6812 14.2082 76.5073 14.2486 76.3434 14.3294C76.1795 14.4102 76.0371 14.5199 75.9164 14.6584C75.7956 14.797 75.6993 14.9601 75.6274 15.1477C75.5555 15.3353 75.5196 15.5359 75.5196 15.7495ZM80.3977 17.9792C80.5846 18.0514 80.7873 18.0875 81.0058 18.0875C81.3451 18.0875 81.6628 18.0167 81.959 17.8753C82.2552 17.7339 82.5039 17.5304 82.7052 17.2648L82.731 17.5506C82.754 17.6949 82.8159 17.8132 82.9165 17.9056C83.0171 17.998 83.1595 18.0442 83.3435 18.0442C83.4068 18.0442 83.4715 18.0413 83.5376 18.0355C83.6037 18.0297 83.6828 18.0182 83.7748 18.0009V17.1869C83.608 17.1811 83.5247 17.0772 83.5247 16.8752V15.2386C83.5247 14.644 83.3521 14.188 83.0071 13.8705C82.662 13.5529 82.179 13.3942 81.5579 13.3942C80.931 13.3942 80.3272 13.5905 79.7464 13.983L80.0397 14.5892C80.287 14.4217 80.5271 14.2933 80.76 14.2038C80.9929 14.1143 81.2301 14.0696 81.4716 14.0696C81.8282 14.0696 82.1013 14.1634 82.2911 14.351C82.4809 14.5386 82.5758 14.7999 82.5758 15.1347V15.4464C82.409 15.3829 82.2221 15.3324 82.0151 15.2949C81.808 15.2574 81.5981 15.2386 81.3854 15.2386C81.1036 15.2386 80.8462 15.2732 80.6133 15.3425C80.3804 15.4118 80.1791 15.5099 80.0095 15.6369C79.8398 15.7639 79.709 15.914 79.617 16.0872C79.525 16.2604 79.479 16.4538 79.479 16.6674C79.479 16.8694 79.5178 17.057 79.5954 17.2302C79.6731 17.4034 79.7795 17.5535 79.9146 17.6805C80.0497 17.8075 80.2108 17.9071 80.3977 17.9792ZM81.2646 17.3861C81.4946 17.3861 81.7117 17.3442 81.9159 17.2605C82.12 17.1768 82.2796 17.0599 82.3946 16.9098C82.5154 16.8059 82.5758 16.6962 82.5758 16.5808V15.9833C82.4147 15.9198 82.2437 15.8707 82.0625 15.8361C81.8814 15.8014 81.7045 15.7841 81.532 15.7841C81.1927 15.7841 80.9152 15.8577 80.6996 16.0049C80.4839 16.1521 80.3761 16.347 80.3761 16.5894C80.3761 16.8146 80.4595 17.0036 80.6263 17.1566C80.793 17.3096 81.0058 17.3861 81.2646 17.3861ZM85.4397 17.9013C85.6984 18.0254 85.9802 18.0875 86.285 18.0875C86.6358 18.0875 86.955 18.0066 87.2425 17.845C87.5301 17.6834 87.7572 17.4611 87.924 17.1782L87.9412 17.516C87.9527 17.6718 88.0189 17.7988 88.1396 17.897C88.2604 17.9951 88.4157 18.0442 88.6055 18.0442C88.6457 18.0442 88.696 18.0413 88.7564 18.0355C88.8168 18.0297 88.8959 18.0182 88.9936 18.0009V17.1869C88.8959 17.1811 88.8283 17.1552 88.7909 17.109C88.7535 17.0628 88.7349 16.9849 88.7349 16.8752V11.6797H87.786V14.3294C87.6307 14.0581 87.4151 13.8344 87.139 13.6583C86.863 13.4822 86.5438 13.3942 86.1815 13.3942C85.8882 13.3942 85.6194 13.4563 85.375 13.5804C85.1306 13.7045 84.9178 13.8733 84.7366 14.0869C84.5555 14.3005 84.4146 14.5473 84.3139 14.8273C84.2133 15.1073 84.163 15.406 84.163 15.7235C84.163 16.0526 84.2162 16.36 84.3226 16.6457C84.429 16.9315 84.577 17.1811 84.7668 17.3947C84.9566 17.6083 85.1809 17.7772 85.4397 17.9013ZM86.5179 17.2735C86.6559 17.2735 86.794 17.2504 86.932 17.2042C87.07 17.158 87.1965 17.0945 87.3115 17.0137C87.4266 16.9329 87.5258 16.8377 87.6091 16.728C87.6925 16.6183 87.7515 16.4999 87.786 16.3729V15.1866C87.7342 15.0423 87.6609 14.9095 87.566 14.7883C87.4711 14.6671 87.3633 14.5632 87.2425 14.4766C87.1218 14.39 86.9938 14.3236 86.8587 14.2774C86.7235 14.2312 86.5869 14.2082 86.4489 14.2082C86.2591 14.2082 86.0852 14.2515 85.927 14.338C85.7689 14.4246 85.6323 14.5401 85.5173 14.6844C85.4023 14.8287 85.3117 14.9933 85.2456 15.178C85.1794 15.3627 85.1464 15.5532 85.1464 15.7495C85.1464 15.9573 85.1823 16.1536 85.2542 16.3383C85.3261 16.523 85.4253 16.6847 85.5518 16.8232C85.6783 16.9618 85.8235 17.0714 85.9874 17.1523C86.1513 17.2331 86.3282 17.2735 86.5179 17.2735ZM92.6899 17.897C92.9746 18.024 93.2952 18.0875 93.6518 18.0875C94.0026 18.0875 94.3203 18.024 94.605 17.897C94.8896 17.77 95.134 17.5997 95.3382 17.3861C95.5423 17.1725 95.699 16.9228 95.8083 16.637C95.9176 16.3513 95.9722 16.0526 95.9722 15.7408C95.9722 15.4291 95.9176 15.1304 95.8083 14.8446C95.699 14.5589 95.5423 14.3092 95.3382 14.0956C95.134 13.882 94.8896 13.7117 94.605 13.5847C94.3203 13.4577 94.0026 13.3942 93.6518 13.3942C93.301 13.3942 92.9832 13.4577 92.6986 13.5847C92.4139 13.7117 92.1695 13.882 91.9654 14.0956C91.7612 14.3092 91.6045 14.5589 91.4952 14.8446C91.386 15.1304 91.3313 15.4291 91.3313 15.7408C91.3313 16.0526 91.386 16.3513 91.4952 16.637C91.6045 16.9228 91.7598 17.1725 91.961 17.3861C92.1623 17.5997 92.4053 17.77 92.6899 17.897ZM92.3061 15.7495C92.3061 15.9689 92.3406 16.1709 92.4096 16.3556C92.4786 16.5404 92.5735 16.7005 92.6943 16.8362C92.815 16.9719 92.9574 17.0787 93.1213 17.1566C93.2852 17.2345 93.462 17.2735 93.6518 17.2735C93.8415 17.2735 94.0184 17.2345 94.1823 17.1566C94.3462 17.0787 94.4885 16.9704 94.6093 16.8319C94.73 16.6933 94.8249 16.5317 94.8939 16.347C94.9629 16.1622 94.9974 15.9602 94.9974 15.7408C94.9974 15.5272 94.9629 15.3266 94.8939 15.139C94.8249 14.9514 94.73 14.7883 94.6093 14.6498C94.4885 14.5112 94.3462 14.403 94.1823 14.3251C94.0184 14.2471 93.8415 14.2082 93.6518 14.2082C93.4677 14.2082 93.2938 14.2486 93.1299 14.3294C92.966 14.4102 92.8237 14.5199 92.7029 14.6584C92.5821 14.797 92.4858 14.9601 92.4139 15.1477C92.342 15.3353 92.3061 15.5359 92.3061 15.7495ZM99.6901 18.0009H100.639V15.2386C100.639 14.9904 100.619 14.7551 100.579 14.5329C100.538 14.3106 100.468 14.1144 100.367 13.9441C100.267 13.7738 100.13 13.6395 99.9575 13.5414C99.785 13.4433 99.5636 13.3942 99.2933 13.3942C98.8965 13.3942 98.5342 13.4822 98.2064 13.6583C97.8786 13.8344 97.6284 14.0754 97.4559 14.3813V13.4721H96.5933V18.0009H97.5422V15.3079C97.5939 15.152 97.6672 15.0091 97.7621 14.8792C97.857 14.7494 97.9648 14.6368 98.0856 14.5415C98.2064 14.4463 98.3358 14.3727 98.4738 14.3207C98.6118 14.2688 98.7498 14.2428 98.8878 14.2428C99.1524 14.2428 99.3522 14.3395 99.4874 14.5329C99.6225 14.7263 99.6901 15.0365 99.6901 15.4637V18.0009ZM105.935 17.7671C105.815 17.8248 105.648 17.8897 105.435 17.9619C105.222 18.0341 104.995 18.0701 104.754 18.0701C104.604 18.0701 104.463 18.0499 104.331 18.0095C104.199 17.9691 104.082 17.9085 103.982 17.8277C103.881 17.7469 103.802 17.6415 103.744 17.5116C103.687 17.3817 103.658 17.2244 103.658 17.0397V14.2082H103.063V13.4721H103.658V11.9828H104.607V13.4721H105.59V14.2082H104.607V16.7366C104.618 16.8983 104.669 17.0152 104.758 17.0873C104.847 17.1595 104.958 17.1956 105.09 17.1956C105.222 17.1956 105.349 17.1725 105.47 17.1263C105.59 17.0801 105.68 17.0426 105.737 17.0137L105.935 17.7671ZM109.464 18.0009H110.412V15.2386C110.412 14.9904 110.391 14.7551 110.348 14.5329C110.305 14.3106 110.228 14.1158 110.119 13.9484C110.01 13.781 109.865 13.6468 109.683 13.5457C109.502 13.4447 109.271 13.3942 108.989 13.3942C108.638 13.3942 108.315 13.4808 108.019 13.654C107.722 13.8272 107.488 14.0696 107.316 14.3813V11.6797H106.367V18.0009H107.316V15.3079C107.362 15.152 107.431 15.0091 107.523 14.8792C107.615 14.7494 107.72 14.6368 107.837 14.5415C107.955 14.4463 108.08 14.3727 108.213 14.3207C108.345 14.2688 108.477 14.2428 108.61 14.2428C108.886 14.2428 109.097 14.3424 109.244 14.5415C109.39 14.7407 109.464 15.0481 109.464 15.4637V18.0009ZM113.337 18.0875C112.986 18.0875 112.667 18.0254 112.379 17.9013C112.092 17.7772 111.846 17.6083 111.642 17.3947C111.437 17.1811 111.279 16.9329 111.167 16.65C111.055 16.3672 110.999 16.067 110.999 15.7495C110.999 15.432 111.055 15.1304 111.167 14.8446C111.279 14.5589 111.437 14.3077 111.642 14.0913C111.846 13.8748 112.092 13.7045 112.379 13.5804C112.667 13.4563 112.989 13.3942 113.345 13.3942C113.696 13.3942 114.014 13.4577 114.298 13.5847C114.583 13.7117 114.826 13.8806 115.027 14.0913C115.229 14.302 115.383 14.5473 115.489 14.8273C115.595 15.1073 115.648 15.4002 115.648 15.7062C115.648 15.7755 115.646 15.8404 115.64 15.901C115.634 15.9616 115.628 16.0121 115.623 16.0526H112.008C112.025 16.2546 112.073 16.4364 112.151 16.5981C112.228 16.7597 112.329 16.8997 112.452 17.0181C112.576 17.1364 112.717 17.2273 112.875 17.2908C113.033 17.3543 113.199 17.3861 113.371 17.3861C113.498 17.3861 113.623 17.3702 113.746 17.3384C113.87 17.3067 113.984 17.2605 114.087 17.1999C114.191 17.1393 114.283 17.0657 114.363 16.9791C114.444 16.8925 114.507 16.7972 114.553 16.6933L115.364 16.9271C115.209 17.2677 114.951 17.5463 114.592 17.7627C114.232 17.9792 113.814 18.0875 113.337 18.0875ZM114.566 14.8663C114.644 15.0279 114.691 15.204 114.708 15.3945H111.982C112 15.204 112.046 15.0279 112.12 14.8663C112.195 14.7046 112.293 14.5675 112.414 14.4549C112.534 14.3424 112.674 14.2543 112.832 14.1908C112.99 14.1273 113.158 14.0956 113.337 14.0956C113.515 14.0956 113.685 14.1273 113.846 14.1908C114.007 14.2543 114.148 14.3424 114.268 14.4549C114.389 14.5675 114.488 14.7046 114.566 14.8663Z" fill="white"/>
<path fill-rule="evenodd" clip-rule="evenodd" d="M53.8361 21.2913H56.2982L61.7472 36.0784H58.8814L57.5494 32.392H52.5444L51.2326 36.0784H48.3669L53.8361 21.2913ZM57.0449 30.3718L55.0671 24.5611L53.0086 30.3718H57.0449ZM67.4566 35.7139C68.0755 36.0958 68.802 36.2867 69.6362 36.2867C70.3089 36.2867 70.9278 36.1409 71.4929 35.8493C72.058 35.5577 72.5457 35.1551 72.9561 34.6414C73.3664 34.1276 73.686 33.5236 73.9147 32.8294C74.1434 32.1352 74.2578 31.3923 74.2578 30.6009C74.2578 29.8373 74.1333 29.1118 73.8844 28.4245C73.6355 27.7372 73.2924 27.1402 72.8552 26.6334C72.4179 26.1266 71.8965 25.7239 71.2911 25.4254C70.6856 25.1269 70.0264 24.9776 69.3133 24.9776C68.506 24.9776 67.793 25.1616 67.1741 25.5295C66.5552 25.8975 66.0506 26.4008 65.6605 27.0395V25.1651H63.2992V40.5146H66.0036V34.1623C66.3534 34.8149 66.8377 35.3321 67.4566 35.7139ZM68.7281 33.9124C69.1317 33.9124 69.505 33.8222 69.8481 33.6417C70.1912 33.4612 70.4838 33.2182 70.726 32.9127C70.9682 32.6073 71.1566 32.2532 71.2911 31.8505C71.4256 31.4479 71.4929 31.0313 71.4929 30.6009C71.4929 30.1427 71.4189 29.7158 71.2709 29.3201C71.1229 28.9243 70.9177 28.5807 70.6554 28.2891C70.393 27.9975 70.0836 27.7685 69.727 27.6018C69.3705 27.4352 68.9837 27.3519 68.5666 27.3519C68.311 27.3519 68.0486 27.397 67.7795 27.4873C67.5104 27.5775 67.2615 27.706 67.0328 27.8726C66.8041 28.0392 66.5989 28.2336 66.4173 28.4557C66.2356 28.6779 66.0977 28.9209 66.0036 29.1847V31.7464C66.2457 32.3712 66.6157 32.8884 67.1135 33.298C67.6113 33.7076 68.1495 33.9124 68.7281 33.9124ZM80.4919 35.7139C81.1108 36.0958 81.8373 36.2867 82.6715 36.2867C83.3442 36.2867 83.9631 36.1409 84.5282 35.8493C85.0933 35.5577 85.581 35.1551 85.9914 34.6414C86.4017 34.1276 86.7213 33.5236 86.95 32.8294C87.1787 32.1352 87.2931 31.3923 87.2931 30.6009C87.2931 29.8373 87.1686 29.1118 86.9197 28.4245C86.6708 27.7372 86.3277 27.1402 85.8905 26.6334C85.4532 26.1266 84.9318 25.7239 84.3264 25.4254C83.7209 25.1269 83.0617 24.9776 82.3486 24.9776C81.5413 24.9776 80.8283 25.1616 80.2094 25.5295C79.5905 25.8975 79.0859 26.4008 78.6958 27.0395V25.1651H76.3345V40.5146H79.0389V34.1623C79.3887 34.8149 79.873 35.3321 80.4919 35.7139ZM81.7633 33.9124C82.167 33.9124 82.5403 33.8222 82.8834 33.6417C83.2265 33.4612 83.5191 33.2182 83.7613 32.9127C84.0035 32.6073 84.1918 32.2532 84.3264 31.8505C84.4609 31.4479 84.5282 31.0313 84.5282 30.6009C84.5282 30.1427 84.4542 29.7158 84.3062 29.3201C84.1582 28.9243 83.953 28.5807 83.6907 28.2891C83.4283 27.9975 83.1189 27.7685 82.7623 27.6018C82.4058 27.4352 82.019 27.3519 81.6019 27.3519C81.3463 27.3519 81.0839 27.397 80.8148 27.4873C80.5457 27.5775 80.2968 27.706 80.0681 27.8726C79.8394 28.0392 79.6342 28.2336 79.4526 28.4557C79.2709 28.6779 79.133 28.9209 79.0389 29.1847V31.7464C79.281 32.3712 79.651 32.8884 80.1488 33.298C80.6466 33.7076 81.1848 33.9124 81.7633 33.9124ZM95.8462 35.8493C96.6938 36.1409 97.5616 36.2867 98.4496 36.2867C99.7681 36.2867 100.811 35.9778 101.578 35.3599C102.345 34.742 102.728 33.8985 102.728 32.8294C102.728 32.3712 102.651 31.979 102.496 31.6527C102.341 31.3264 102.099 31.0383 101.769 30.7884C101.44 30.5384 101.016 30.3163 100.498 30.1219C99.98 29.9275 99.3577 29.7331 98.6312 29.5387C98.241 29.4416 97.9148 29.3478 97.6524 29.2576C97.39 29.1673 97.1781 29.0736 97.0167 28.9764C96.8552 28.8792 96.7375 28.7681 96.6635 28.6432C96.5895 28.5182 96.5525 28.3585 96.5525 28.1642C96.5525 27.7337 96.7072 27.4213 97.0167 27.2269C97.3261 27.0326 97.7096 26.9354 98.167 26.9354C98.6648 26.9354 99.166 27.0326 99.6705 27.2269C100.175 27.4213 100.696 27.7268 101.235 28.1433L102.324 26.4564C101.746 25.9287 101.11 25.5469 100.417 25.3109C99.7244 25.0748 98.981 24.9568 98.1872 24.9568C97.5952 24.9568 97.047 25.0401 96.5424 25.2067C96.0379 25.3733 95.5973 25.6129 95.2205 25.9253C94.8438 26.2377 94.5512 26.616 94.3426 27.0603C94.1341 27.5046 94.0298 28.0045 94.0298 28.5599C94.0298 28.9764 94.0971 29.3339 94.2316 29.6325C94.3662 29.931 94.5815 30.1948 94.8774 30.4239C95.1734 30.653 95.5636 30.8578 96.048 31.0383C96.5323 31.2188 97.1176 31.4062 97.8038 31.6006C98.6245 31.8367 99.2165 32.0449 99.5797 32.2254C99.943 32.4059 100.125 32.6906 100.125 33.0793C100.125 33.4681 99.9699 33.7666 99.6605 33.9749C99.351 34.1832 98.9272 34.2873 98.389 34.2873C97.7836 34.2873 97.1748 34.1658 96.5626 33.9228C95.9504 33.6798 95.3214 33.3223 94.6756 32.8502L93.6666 34.5997C94.272 35.1412 94.9985 35.5577 95.8462 35.8493ZM111.061 35.5161C110.698 35.6827 110.254 35.8493 109.729 36.0159C109.204 36.1826 108.653 36.2659 108.074 36.2659C107.697 36.2659 107.344 36.2173 107.015 36.1201C106.685 36.0229 106.396 35.8667 106.147 35.6515C105.898 35.4362 105.7 35.1586 105.552 34.8184C105.404 34.4782 105.33 34.0651 105.33 33.5792V27.3103H103.937V25.1651H105.33V21.6245H108.034V25.1651H110.254V27.3103H108.034V32.642C108.034 33.0307 108.131 33.305 108.326 33.4646C108.522 33.6243 108.76 33.7041 109.043 33.7041C109.325 33.7041 109.601 33.6555 109.87 33.5584C110.139 33.4612 110.355 33.3779 110.516 33.3084L111.061 35.5161ZM115.015 35.8285C115.701 36.134 116.474 36.2867 117.336 36.2867C118.197 36.2867 118.97 36.134 119.656 35.8285C120.343 35.523 120.921 35.11 121.392 34.5893C121.863 34.0686 122.226 33.4681 122.482 32.7878C122.737 32.1074 122.865 31.3923 122.865 30.6426C122.865 29.8789 122.737 29.1569 122.482 28.4766C122.226 27.7962 121.86 27.1957 121.382 26.675C120.904 26.1544 120.326 25.7413 119.646 25.4358C118.967 25.1304 118.197 24.9776 117.336 24.9776C116.474 24.9776 115.701 25.1304 115.015 25.4358C114.329 25.7413 113.747 26.1544 113.269 26.675C112.791 27.1957 112.425 27.7962 112.169 28.4766C111.913 29.1569 111.786 29.8789 111.786 30.6426C111.786 31.3923 111.913 32.1074 112.169 32.7878C112.425 33.4681 112.791 34.0686 113.269 34.5893C113.747 35.11 114.329 35.523 115.015 35.8285ZM114.571 30.6426C114.571 31.1285 114.641 31.5694 114.783 31.9651C114.924 32.3608 115.119 32.7044 115.368 32.996C115.617 33.2876 115.909 33.5132 116.246 33.6729C116.582 33.8326 116.945 33.9124 117.336 33.9124C117.726 33.9124 118.089 33.8326 118.425 33.6729C118.762 33.5132 119.054 33.2876 119.303 32.996C119.552 32.7044 119.747 32.3573 119.889 31.9547C120.03 31.552 120.1 31.1077 120.1 30.6217C120.1 30.1497 120.03 29.7123 119.889 29.3096C119.747 28.907 119.552 28.5599 119.303 28.2683C119.054 27.9767 118.762 27.7511 118.425 27.5914C118.089 27.4317 117.726 27.3519 117.336 27.3519C116.945 27.3519 116.582 27.4352 116.246 27.6018C115.909 27.7685 115.617 27.9975 115.368 28.2891C115.119 28.5807 114.924 28.9278 114.783 29.3305C114.641 29.7331 114.571 30.1705 114.571 30.6426ZM129.019 28.0704C129.665 27.758 130.398 27.5949 131.218 27.581V25.0401C131.151 25.0262 131.081 25.0193 131.007 25.0193H130.674C130.391 25.0193 130.098 25.0783 129.796 25.1963C129.493 25.3143 129.194 25.4844 128.898 25.7066C128.602 25.9287 128.326 26.1891 128.07 26.4876C127.815 26.7861 127.593 27.1228 127.404 27.4977V25.1651H124.922V36.0784H127.626V29.4763C127.909 28.8514 128.373 28.3828 129.019 28.0704ZM137.352 36.2867C136.504 36.2867 135.737 36.1374 135.051 35.8389C134.365 35.5404 133.78 35.1343 133.295 34.6205C132.811 34.1068 132.438 33.5098 132.175 32.8294C131.913 32.1491 131.782 31.434 131.782 30.6842C131.782 29.9067 131.909 29.1743 132.165 28.487C132.421 27.7997 132.791 27.1957 133.275 26.675C133.759 26.1544 134.348 25.7413 135.041 25.4358C135.734 25.1304 136.511 24.9776 137.372 24.9776C138.233 24.9776 139.003 25.1304 139.683 25.4358C140.362 25.7413 140.941 26.1509 141.418 26.6646C141.896 27.1784 142.259 27.7754 142.508 28.4557C142.757 29.1361 142.881 29.8442 142.881 30.5801C142.881 30.7606 142.878 30.9341 142.871 31.1008C142.865 31.2674 142.848 31.4062 142.821 31.5173H134.647C134.688 31.9477 134.789 32.3296 134.95 32.6628C135.112 32.996 135.32 33.2807 135.576 33.5167C135.831 33.7527 136.121 33.9332 136.444 34.0582C136.766 34.1832 137.103 34.2456 137.453 34.2456C137.991 34.2456 138.499 34.1103 138.976 33.8395C139.454 33.5688 139.78 33.2112 139.955 32.7669L142.276 33.4334C141.886 34.2665 141.264 34.9503 140.409 35.4848C139.555 36.0194 138.536 36.2867 137.352 36.2867ZM139.219 27.7372C139.737 28.2301 140.029 28.8862 140.096 29.7054H134.607C134.634 29.3027 134.725 28.9348 134.88 28.6015C135.034 28.2683 135.233 27.9837 135.475 27.7476C135.717 27.5116 135.996 27.3276 136.312 27.1957C136.629 27.0638 136.968 26.9979 137.332 26.9979C138.072 26.9979 138.701 27.2443 139.219 27.7372Z" fill="white"/>
<path fill-rule="evenodd" clip-rule="evenodd" d="M31.451 9.05359C31.451 10.4984 30.964 11.8465 29.99 13.0987C28.7965 14.6005 27.4372 15.2749 25.912 15.1212C25.8939 15.0242 25.8845 14.9331 25.8845 14.8457V14.572C25.8845 13.185 26.3809 11.8857 27.3724 10.6713C27.8692 10.0562 28.4981 9.54506 29.26 9.13989C30.0229 8.73619 30.7435 8.51435 31.4235 8.47583C31.4416 8.57212 31.451 8.66805 31.451 8.76508V9.05359ZM36.4378 18.2985C34.4173 19.6081 33.4248 21.4377 33.4625 23.788C33.4809 25.5984 34.0965 27.1205 35.3074 28.3513C35.8581 28.9101 36.4737 29.3453 37.1533 29.6527C37.0798 29.8842 37.0063 30.1097 36.9332 30.3312C36.8589 30.5527 36.7764 30.769 36.6855 30.9808C36.4906 31.4859 36.2652 31.9781 36.0105 32.4545C35.7731 32.8969 35.5203 33.3305 35.2527 33.7544C34.9314 34.2461 34.5959 34.7278 34.2464 35.1989C33.9437 35.6033 33.6631 35.9207 33.4071 36.1529C32.6713 36.8647 31.8819 37.2407 31.0368 37.2784C30.4676 37.2784 29.7321 37.0862 28.8327 36.6999C28.0234 36.3348 27.2435 36.1525 26.4907 36.1525C25.6821 36.1525 24.8732 36.3359 24.0657 36.6999C23.2021 37.0862 22.5047 37.2881 21.9724 37.3081C21.1447 37.3473 20.3375 36.9614 19.5467 36.1529C18.9974 35.6322 18.3522 34.8041 17.6182 33.6674C16.7926 32.4167 16.1119 30.9627 15.5792 29.306C15.01 27.5716 14.7261 25.8387 14.7261 24.1054C14.7261 22.1799 15.111 20.5233 15.8834 19.1359C16.4892 18.02 17.297 17.1382 18.3073 16.4927C19.3172 15.8479 20.4107 15.5157 21.5861 15.496C22.2842 15.496 23.1297 15.7079 24.1207 16.1316C25.114 16.5564 25.7842 16.7671 26.1333 16.7671C26.2984 16.7671 27.0429 16.5178 28.3652 16.0164C29.5946 15.5534 30.6052 15.3623 31.3956 15.4382C33.6178 15.6512 35.2983 16.6038 36.4378 18.2985Z" fill="white"/>
</svg>
