<svg width="203" height="68" viewBox="0 0 203 68" fill="none" xmlns="http://www.w3.org/2000/svg">
<path d="M194.069 67.2116H9.85707C4.9245 67.212 0.924316 63.1745 0.924316 58.1956V9.51524C0.924316 4.53712 4.9245 0.5 9.85707 0.5H194.069C199.001 0.5 202.999 4.53712 202.999 9.51524V58.1956C203 63.1741 199.001 67.2116 194.069 67.2116Z" fill="#161616"/>
<path fill-rule="evenodd" clip-rule="evenodd" d="M89.3058 14.2346H90.4679V20.3755C90.4679 20.5805 90.5208 20.7414 90.6264 20.8581C90.732 20.9747 90.8799 21.0331 91.0701 21.0331C91.1476 21.0331 91.2374 21.0189 91.3395 20.9906C91.4416 20.9623 91.5385 20.9305 91.63 20.8952L91.7991 21.8073C91.63 21.8851 91.4293 21.9469 91.1969 21.9929C90.9645 22.0389 90.7567 22.0618 90.5736 22.0618C90.1721 22.0618 89.8605 21.9522 89.6386 21.733C89.4168 21.5139 89.3058 21.2027 89.3058 20.7997V14.2346ZM61.7432 14.4467V21.977H64.4054C64.9618 21.977 65.4654 21.8868 65.9161 21.7065C66.3669 21.5262 66.7507 21.2717 67.0677 20.9429C67.3846 20.6141 67.6293 20.2182 67.8019 19.755C67.9744 19.2919 68.0607 18.774 68.0607 18.2013C68.0607 17.6851 67.9832 17.199 67.8283 16.7429C67.6733 16.2869 67.4427 15.8892 67.1363 15.5498C66.83 15.2104 66.4496 14.9417 65.9954 14.7437C65.5411 14.5457 65.0111 14.4467 64.4054 14.4467H61.7432ZM66.6926 17.1088C66.8018 17.4412 66.8564 17.8053 66.8564 18.2013C66.8564 18.5901 66.8035 18.9507 66.6979 19.2831C66.5923 19.6154 66.4355 19.9035 66.2278 20.1475C66.02 20.3914 65.7629 20.5823 65.4566 20.7202C65.1502 20.8581 64.7998 20.927 64.4054 20.927H62.9264V15.4967H64.4054C64.7928 15.4967 65.1379 15.5639 65.4407 15.6982C65.7436 15.8326 66.0006 16.0182 66.2119 16.2551C66.4232 16.4919 66.5834 16.7765 66.6926 17.1088ZM71.3674 22.083C70.9307 22.083 70.5381 22.0053 70.1895 21.8497C69.8408 21.6942 69.5433 21.4856 69.2968 21.224C69.0502 20.9623 68.8601 20.6565 68.7263 20.3065C68.5925 19.9565 68.5255 19.5906 68.5255 19.2088C68.5255 18.827 68.5925 18.4611 68.7263 18.1111C68.8601 17.7611 69.052 17.4553 69.302 17.1937C69.5521 16.9321 69.8514 16.7235 70.2 16.5679C70.5486 16.4124 70.9378 16.3346 71.3674 16.3346C71.797 16.3346 72.1861 16.4124 72.5348 16.5679C72.8834 16.7235 73.1827 16.9321 73.4327 17.1937C73.6828 17.4553 73.8747 17.7611 74.0085 18.1111C74.1423 18.4611 74.2092 18.827 74.2092 19.2088C74.2092 19.5906 74.1423 19.9565 74.0085 20.3065C73.8747 20.6565 73.6828 20.9623 73.4327 21.224C73.1827 21.4856 72.8834 21.6942 72.5348 21.8497C72.1861 22.0053 71.797 22.083 71.3674 22.083ZM69.8461 19.9618C69.7616 19.7356 69.7193 19.4881 69.7193 19.2194C69.7193 18.9578 69.7634 18.7121 69.8514 18.4823C69.9394 18.2525 70.0574 18.0528 70.2053 17.8831C70.3532 17.7134 70.5275 17.579 70.7282 17.48C70.929 17.3811 71.142 17.3316 71.3674 17.3316C71.5998 17.3316 71.8164 17.3793 72.0171 17.4747C72.2178 17.5702 72.3921 17.7028 72.54 17.8725C72.6879 18.0422 72.8042 18.2419 72.8887 18.4717C72.9732 18.7015 73.0154 18.9472 73.0154 19.2088C73.0154 19.4775 72.9732 19.725 72.8887 19.9512C72.8042 20.1775 72.6879 20.3755 72.54 20.5452C72.3921 20.7149 72.2178 20.8474 72.0171 20.9429C71.8164 21.0384 71.5998 21.0861 71.3674 21.0861C71.135 21.0861 70.9184 21.0384 70.7177 20.9429C70.5169 20.8474 70.3426 20.7166 70.1947 20.5505C70.0468 20.3843 69.9306 20.1881 69.8461 19.9618ZM81.6572 16.4301H82.7664L80.4423 21.977H79.4809L78.4561 19.3997L77.4314 21.977H76.47L74.1353 16.4301H75.2445L77.0299 20.8527L77.8328 18.7952L76.8715 16.4407H77.8223L78.4561 18.18L79.0794 16.4407H80.0302L79.0794 18.7952L79.8823 20.8527L81.6572 16.4301ZM87.0556 21.977H88.2177V18.5937C88.2177 18.2896 88.1931 18.0015 88.1438 17.7293C88.0945 17.4571 88.0082 17.2167 87.8849 17.0081C87.7617 16.7995 87.5944 16.6351 87.3831 16.5149C87.1718 16.3947 86.9007 16.3346 86.5696 16.3346C86.0837 16.3346 85.64 16.4424 85.2385 16.6581C84.8371 16.8737 84.5307 17.1689 84.3194 17.5437V16.4301H83.263V21.977H84.4251V18.6785C84.4884 18.4876 84.5782 18.3126 84.6945 18.1535C84.8107 17.9944 84.9427 17.8566 85.0906 17.7399C85.2385 17.6232 85.397 17.5331 85.566 17.4694C85.7351 17.4058 85.9041 17.374 86.0731 17.374C86.3971 17.374 86.6418 17.4924 86.8073 17.7293C86.9729 17.9662 87.0556 18.3462 87.0556 18.8694V21.977ZM93.5052 21.8497C93.8538 22.0053 94.2465 22.083 94.6832 22.083C95.1128 22.083 95.5019 22.0053 95.8505 21.8497C96.1992 21.6942 96.4985 21.4856 96.7485 21.224C96.9985 20.9623 97.1905 20.6565 97.3243 20.3065C97.4581 19.9565 97.525 19.5906 97.525 19.2088C97.525 18.827 97.4581 18.4611 97.3243 18.1111C97.1905 17.7611 96.9985 17.4553 96.7485 17.1937C96.4985 16.9321 96.1992 16.7235 95.8505 16.5679C95.5019 16.4124 95.1128 16.3346 94.6832 16.3346C94.2535 16.3346 93.8644 16.4124 93.5158 16.5679C93.1672 16.7235 92.8678 16.9321 92.6178 17.1937C92.3678 17.4553 92.1759 17.7611 92.042 18.1111C91.9082 18.4611 91.8413 18.827 91.8413 19.2088C91.8413 19.5906 91.9082 19.9565 92.042 20.3065C92.1759 20.6565 92.366 20.9623 92.6125 21.224C92.859 21.4856 93.1566 21.6942 93.5052 21.8497ZM93.0351 19.2194C93.0351 19.4881 93.0774 19.7356 93.1619 19.9618C93.2464 20.1881 93.3626 20.3843 93.5105 20.5505C93.6584 20.7166 93.8327 20.8474 94.0334 20.9429C94.2342 21.0384 94.4507 21.0861 94.6832 21.0861C94.9156 21.0861 95.1321 21.0384 95.3329 20.9429C95.5336 20.8474 95.7079 20.7149 95.8558 20.5452C96.0037 20.3755 96.1199 20.1775 96.2044 19.9512C96.289 19.725 96.3312 19.4775 96.3312 19.2088C96.3312 18.9472 96.289 18.7015 96.2044 18.4717C96.1199 18.2419 96.0037 18.0422 95.8558 17.8725C95.7079 17.7028 95.5336 17.5702 95.3329 17.4747C95.1321 17.3793 94.9156 17.3316 94.6832 17.3316C94.4578 17.3316 94.2447 17.3811 94.044 17.48C93.8433 17.579 93.669 17.7134 93.5211 17.8831C93.3732 18.0528 93.2552 18.2525 93.1672 18.4823C93.0791 18.7121 93.0351 18.9578 93.0351 19.2194ZM99.0093 21.9505C99.2382 22.0389 99.4865 22.083 99.7541 22.083C100.17 22.083 100.559 21.9964 100.921 21.8232C101.284 21.65 101.589 21.4007 101.835 21.0755L101.867 21.4255C101.895 21.6022 101.971 21.7472 102.094 21.8603C102.217 21.9734 102.392 22.03 102.617 22.03C102.695 22.03 102.774 22.0265 102.855 22.0194C102.936 22.0123 103.033 21.9982 103.145 21.977V20.98C102.941 20.9729 102.839 20.8457 102.839 20.5982V18.5937C102.839 17.8654 102.628 17.3068 102.205 16.9179C101.782 16.529 101.191 16.3346 100.43 16.3346C99.6625 16.3346 98.923 16.575 98.2117 17.0558L98.5709 17.7982C98.8737 17.5932 99.1678 17.4359 99.453 17.3263C99.7383 17.2167 100.029 17.1619 100.325 17.1619C100.761 17.1619 101.096 17.2768 101.328 17.5066C101.561 17.7364 101.677 18.0563 101.677 18.4664V18.8482C101.473 18.7704 101.244 18.7086 100.99 18.6626C100.737 18.6167 100.48 18.5937 100.219 18.5937C99.8738 18.5937 99.5587 18.6361 99.2734 18.7209C98.9882 18.8058 98.7417 18.926 98.5339 19.0816C98.3261 19.2371 98.1659 19.4209 98.0532 19.6331C97.9405 19.8452 97.8842 20.082 97.8842 20.3437C97.8842 20.5911 97.9317 20.8209 98.0268 21.033C98.1219 21.2452 98.2522 21.429 98.4177 21.5846C98.5832 21.7401 98.7804 21.8621 99.0093 21.9505ZM100.071 21.224C100.353 21.224 100.619 21.1727 100.869 21.0702C101.119 20.9676 101.314 20.8245 101.455 20.6406C101.603 20.5134 101.677 20.379 101.677 20.2376V19.5058C101.48 19.428 101.27 19.3679 101.048 19.3255C100.826 19.2831 100.61 19.2619 100.399 19.2619C99.983 19.2619 99.6432 19.352 99.3791 19.5323C99.1149 19.7126 98.9829 19.9512 98.9829 20.2482C98.9829 20.524 99.085 20.7555 99.2893 20.9429C99.4935 21.1303 99.7541 21.224 100.071 21.224ZM105.184 21.855C105.501 22.007 105.846 22.083 106.22 22.083C106.649 22.083 107.04 21.9841 107.392 21.7861C107.744 21.5881 108.023 21.3159 108.227 20.9694L108.248 21.383C108.262 21.574 108.343 21.7295 108.491 21.8497C108.639 21.9699 108.829 22.03 109.061 22.03C109.111 22.03 109.172 22.0265 109.246 22.0194C109.32 22.0123 109.417 21.9982 109.537 21.977V20.98C109.417 20.9729 109.334 20.9411 109.289 20.8846C109.243 20.828 109.22 20.7325 109.22 20.5982V14.2346H108.058V17.48C107.868 17.1477 107.603 16.8737 107.265 16.6581C106.927 16.4424 106.536 16.3346 106.093 16.3346C105.734 16.3346 105.404 16.4106 105.105 16.5626C104.806 16.7147 104.545 16.9215 104.323 17.1831C104.101 17.4447 103.929 17.747 103.806 18.0899C103.682 18.4328 103.621 18.7987 103.621 19.1876C103.621 19.5906 103.686 19.9671 103.816 20.3171C103.946 20.6671 104.128 20.9729 104.36 21.2346C104.593 21.4962 104.867 21.703 105.184 21.855ZM106.505 21.0861C106.674 21.0861 106.843 21.0578 107.012 21.0012C107.181 20.9447 107.336 20.8669 107.477 20.7679C107.618 20.6689 107.739 20.5522 107.841 20.4179C107.943 20.2836 108.016 20.1386 108.058 19.9831V18.53C107.994 18.3533 107.905 18.1906 107.788 18.0422C107.672 17.8937 107.54 17.7664 107.392 17.6603C107.244 17.5543 107.088 17.473 106.922 17.4164C106.757 17.3598 106.589 17.3316 106.42 17.3316C106.188 17.3316 105.975 17.3846 105.781 17.4907C105.587 17.5967 105.42 17.7381 105.279 17.9149C105.138 18.0917 105.028 18.2932 104.947 18.5194C104.866 18.7457 104.825 18.979 104.825 19.2194C104.825 19.474 104.869 19.7144 104.957 19.9406C105.045 20.1669 105.167 20.3649 105.322 20.5346C105.477 20.7043 105.654 20.8386 105.855 20.9376C106.056 21.0366 106.272 21.0861 106.505 21.0861ZM114.064 21.8497C114.412 22.0053 114.805 22.083 115.242 22.083C115.671 22.083 116.06 22.0053 116.409 21.8497C116.758 21.6942 117.057 21.4856 117.307 21.224C117.557 20.9623 117.749 20.6565 117.883 20.3065C118.017 19.9565 118.083 19.5906 118.083 19.2088C118.083 18.827 118.017 18.4611 117.883 18.1111C117.749 17.7611 117.557 17.4553 117.307 17.1937C117.057 16.9321 116.758 16.7235 116.409 16.5679C116.06 16.4124 115.671 16.3346 115.242 16.3346C114.812 16.3346 114.423 16.4124 114.074 16.5679C113.726 16.7235 113.426 16.9321 113.176 17.1937C112.926 17.4553 112.734 17.7611 112.6 18.1111C112.467 18.4611 112.4 18.827 112.4 19.2088C112.4 19.5906 112.467 19.9565 112.6 20.3065C112.734 20.6565 112.924 20.9623 113.171 21.224C113.417 21.4856 113.715 21.6942 114.064 21.8497ZM113.594 19.2194C113.594 19.4881 113.636 19.7356 113.72 19.9618C113.805 20.1881 113.921 20.3843 114.069 20.5505C114.217 20.7166 114.391 20.8474 114.592 20.9429C114.793 21.0384 115.009 21.0861 115.242 21.0861C115.474 21.0861 115.691 21.0384 115.891 20.9429C116.092 20.8474 116.266 20.7149 116.414 20.5452C116.562 20.3755 116.678 20.1775 116.763 19.9512C116.847 19.725 116.89 19.4775 116.89 19.2088C116.89 18.9472 116.847 18.7015 116.763 18.4717C116.678 18.2419 116.562 18.0422 116.414 17.8725C116.266 17.7028 116.092 17.5702 115.891 17.4747C115.691 17.3793 115.474 17.3316 115.242 17.3316C115.016 17.3316 114.803 17.3811 114.602 17.48C114.402 17.579 114.227 17.7134 114.08 17.8831C113.932 18.0528 113.814 18.2525 113.726 18.4823C113.638 18.7121 113.594 18.9578 113.594 19.2194ZM122.637 21.977H123.799V18.5937C123.799 18.2896 123.774 18.0015 123.725 17.7293C123.676 17.4571 123.589 17.2167 123.466 17.0081C123.343 16.7995 123.176 16.6351 122.964 16.5149C122.753 16.3947 122.482 16.3346 122.151 16.3346C121.665 16.3346 121.221 16.4424 120.82 16.6581C120.418 16.8737 120.112 17.1689 119.901 17.5437V16.4301H118.844V21.977H120.006V18.6785C120.07 18.4876 120.159 18.3126 120.276 18.1535C120.392 17.9944 120.524 17.8566 120.672 17.7399C120.82 17.6232 120.978 17.5331 121.147 17.4694C121.316 17.4058 121.485 17.374 121.654 17.374C121.978 17.374 122.223 17.4924 122.388 17.7293C122.554 17.9662 122.637 18.3462 122.637 18.8694V21.977ZM130.285 21.6906C130.137 21.7613 129.933 21.8409 129.673 21.9293C129.412 22.0176 129.134 22.0618 128.838 22.0618C128.655 22.0618 128.482 22.0371 128.32 21.9876C128.158 21.9381 128.016 21.8639 127.893 21.7649C127.769 21.6659 127.672 21.5368 127.602 21.3777C127.532 21.2187 127.496 21.026 127.496 20.7997V17.3316H126.767V16.4301H127.496V14.6058H128.658V16.4301H129.863V17.3316H128.658V20.4285C128.673 20.6265 128.734 20.7697 128.843 20.8581C128.953 20.9464 129.088 20.9906 129.25 20.9906C129.412 20.9906 129.567 20.9623 129.715 20.9058C129.863 20.8492 129.972 20.8033 130.042 20.7679L130.285 21.6906ZM134.606 21.977H135.768V18.5937C135.768 18.2896 135.742 18.0015 135.689 17.7293C135.636 17.4571 135.543 17.2184 135.409 17.0134C135.275 16.8083 135.098 16.6439 134.876 16.5202C134.654 16.3965 134.37 16.3346 134.025 16.3346C133.596 16.3346 133.199 16.4407 132.837 16.6528C132.474 16.8649 132.187 17.1619 131.976 17.5437V14.2346H130.814V21.977H131.976V18.6785C132.032 18.4876 132.117 18.3126 132.229 18.1535C132.342 17.9944 132.47 17.8566 132.615 17.7399C132.759 17.6232 132.912 17.5331 133.074 17.4694C133.236 17.4058 133.398 17.374 133.56 17.374C133.898 17.374 134.157 17.496 134.337 17.7399C134.516 17.9838 134.606 18.3603 134.606 18.8694V21.977ZM139.35 22.083C138.92 22.083 138.529 22.007 138.177 21.855C137.825 21.703 137.524 21.4962 137.274 21.2346C137.024 20.9729 136.83 20.6689 136.693 20.3224C136.555 19.976 136.487 19.6083 136.487 19.2194C136.487 18.8305 136.555 18.4611 136.693 18.1111C136.83 17.7611 137.024 17.4535 137.274 17.1884C137.524 16.9232 137.825 16.7147 138.177 16.5626C138.529 16.4106 138.924 16.3346 139.36 16.3346C139.79 16.3346 140.179 16.4124 140.528 16.5679C140.876 16.7235 141.174 16.9303 141.42 17.1884C141.667 17.4465 141.855 17.747 141.986 18.0899C142.116 18.4328 142.181 18.7917 142.181 19.1664C142.181 19.2512 142.177 19.3308 142.17 19.405C142.163 19.4793 142.156 19.5411 142.149 19.5906H137.723C137.744 19.8381 137.802 20.0608 137.897 20.2588C137.992 20.4568 138.115 20.6283 138.267 20.7732C138.418 20.9182 138.591 21.0295 138.784 21.1073C138.978 21.1851 139.181 21.224 139.392 21.224C139.547 21.224 139.7 21.2045 139.852 21.1656C140.003 21.1267 140.142 21.0702 140.269 20.9959C140.396 20.9217 140.508 20.8315 140.607 20.7255C140.705 20.6194 140.783 20.5028 140.839 20.3755L141.832 20.6618C141.642 21.079 141.327 21.4202 140.887 21.6853C140.447 21.9505 139.934 22.083 139.35 22.083ZM140.855 18.1376C140.95 18.3356 141.008 18.5512 141.029 18.7846H137.691C137.712 18.5512 137.769 18.3356 137.86 18.1376C137.952 17.9396 138.071 17.7717 138.219 17.6338C138.367 17.496 138.538 17.3881 138.732 17.3104C138.925 17.2326 139.131 17.1937 139.35 17.1937C139.568 17.1937 139.776 17.2326 139.973 17.3104C140.17 17.3881 140.343 17.496 140.491 17.6338C140.639 17.7717 140.76 17.9396 140.855 18.1376Z" fill="white"/>
<path fill-rule="evenodd" clip-rule="evenodd" d="M66.4793 26.0073H69.4947L76.1681 44.1191H72.6584L71.0271 39.6039H64.8975L63.291 44.1191H59.7812L66.4793 26.0073ZM70.4092 37.1295L67.987 30.0123L65.466 37.1295H70.4092ZM83.1604 43.6727C83.9184 44.1403 84.8082 44.3742 85.8298 44.3742C86.6537 44.3742 87.4116 44.1956 88.1037 43.8385C88.7957 43.4813 89.3931 42.9881 89.8956 42.3589C90.3982 41.7297 90.7895 40.9899 91.0696 40.1396C91.3498 39.2893 91.4898 38.3794 91.4898 37.4101C91.4898 36.4747 91.3374 35.5861 91.0326 34.7443C90.7277 33.9025 90.3076 33.1712 89.772 32.5505C89.2365 31.9298 88.598 31.4366 87.8565 31.071C87.115 30.7053 86.3076 30.5225 85.4343 30.5225C84.4457 30.5225 83.5724 30.7478 82.8144 31.1985C82.0564 31.6492 81.4386 32.2657 80.9607 33.0479V30.7521H78.0689V49.5526H81.3809V41.7722C81.8093 42.5715 82.4025 43.205 83.1604 43.6727ZM84.7176 41.4661C85.2119 41.4661 85.6691 41.3555 86.0893 41.1345C86.5095 40.9134 86.8679 40.6158 87.1645 40.2416C87.4611 39.8675 87.6918 39.4338 87.8565 38.9406C88.0213 38.4475 88.1037 37.9373 88.1037 37.4101C88.1037 36.8489 88.0131 36.3259 87.8318 35.8412C87.6506 35.3566 87.3993 34.9357 87.078 34.5785C86.7567 34.2214 86.3777 33.9408 85.941 33.7367C85.5044 33.5326 85.0306 33.4306 84.5198 33.4306C84.2068 33.4306 83.8855 33.4859 83.5559 33.5964C83.2264 33.7069 82.9215 33.8642 82.6414 34.0683C82.3613 34.2724 82.11 34.5105 81.8876 34.7826C81.6651 35.0547 81.4962 35.3523 81.3809 35.6754V38.8131C81.6775 39.5784 82.1306 40.2119 82.7403 40.7136C83.3499 41.2152 84.009 41.4661 84.7176 41.4661ZM99.1248 43.6727C99.8827 44.1403 100.773 44.3742 101.794 44.3742C102.618 44.3742 103.376 44.1956 104.068 43.8385C104.76 43.4813 105.357 42.9881 105.86 42.3589C106.363 41.7297 106.754 40.9899 107.034 40.1396C107.314 39.2893 107.454 38.3794 107.454 37.4101C107.454 36.4747 107.302 35.5861 106.997 34.7443C106.692 33.9025 106.272 33.1712 105.736 32.5505C105.201 31.9298 104.562 31.4366 103.821 31.071C103.079 30.7053 102.272 30.5225 101.399 30.5225C100.41 30.5225 99.5367 30.7478 98.7787 31.1985C98.0208 31.6492 97.4029 32.2657 96.925 33.0479V30.7521H94.0332V49.5526H97.3452V41.7722C97.7736 42.5715 98.3668 43.205 99.1248 43.6727ZM100.682 41.4661C101.176 41.4661 101.633 41.3555 102.054 41.1345C102.474 40.9134 102.832 40.6158 103.129 40.2416C103.425 39.8675 103.656 39.4338 103.821 38.9406C103.986 38.4475 104.068 37.9373 104.068 37.4101C104.068 36.8489 103.977 36.3259 103.796 35.8412C103.615 35.3566 103.364 34.9357 103.042 34.5785C102.721 34.2214 102.342 33.9408 101.905 33.7367C101.469 33.5326 100.995 33.4306 100.484 33.4306C100.171 33.4306 99.8498 33.4859 99.5202 33.5964C99.1907 33.7069 98.8858 33.8642 98.6057 34.0683C98.3256 34.2724 98.0743 34.5105 97.8519 34.7826C97.6294 35.0547 97.4605 35.3523 97.3452 35.6754V38.8131C97.6418 39.5784 98.0949 40.2119 98.7046 40.7136C99.3143 41.2152 99.9734 41.4661 100.682 41.4661ZM117.929 43.8385C118.967 44.1956 120.03 44.3742 121.118 44.3742C122.732 44.3742 124.009 43.9958 124.949 43.239C125.888 42.4822 126.357 41.4491 126.357 40.1396C126.357 39.5784 126.263 39.0979 126.073 38.6983C125.884 38.2986 125.587 37.9458 125.183 37.6397C124.78 37.3335 124.261 37.0614 123.626 36.8234C122.992 36.5853 122.23 36.3472 121.34 36.1091C120.862 35.99 120.463 35.8752 120.141 35.7647C119.82 35.6542 119.56 35.5394 119.363 35.4203C119.165 35.3013 119.021 35.1652 118.93 35.0122C118.839 34.8591 118.794 34.6635 118.794 34.4255C118.794 33.8983 118.984 33.5156 119.363 33.2775C119.742 33.0394 120.211 32.9204 120.771 32.9204C121.381 32.9204 121.995 33.0394 122.613 33.2775C123.231 33.5156 123.869 33.8898 124.528 34.3999L125.863 32.3337C125.154 31.6874 124.376 31.2198 123.527 30.9307C122.679 30.6415 121.768 30.497 120.796 30.497C120.071 30.497 119.4 30.599 118.782 30.8031C118.164 31.0072 117.624 31.3005 117.163 31.6832C116.702 32.0658 116.343 32.5293 116.088 33.0735C115.832 33.6177 115.705 34.2299 115.705 34.9101C115.705 35.4203 115.787 35.8582 115.952 36.2239C116.117 36.5895 116.38 36.9126 116.743 37.1932C117.105 37.4738 117.583 37.7247 118.176 37.9458C118.769 38.1669 119.486 38.3964 120.327 38.6345C121.332 38.9236 122.057 39.1787 122.502 39.3998C122.947 39.6209 123.169 39.9695 123.169 40.4457C123.169 40.9219 122.979 41.2875 122.6 41.5426C122.221 41.7977 121.702 41.9253 121.043 41.9253C120.302 41.9253 119.556 41.7764 118.807 41.4788C118.057 41.1812 117.286 40.7433 116.496 40.1651L115.26 42.3079C116.001 42.9711 116.891 43.4813 117.929 43.8385ZM136.563 43.4303C136.118 43.6344 135.574 43.8385 134.932 44.0425C134.289 44.2466 133.613 44.3487 132.905 44.3487C132.443 44.3487 132.011 44.2891 131.607 44.1701C131.203 44.051 130.849 43.8597 130.544 43.5961C130.24 43.3325 129.997 42.9924 129.815 42.5757C129.634 42.1591 129.543 41.6532 129.543 41.0579V33.3796H127.838V30.7521H129.543V26.4155H132.855V30.7521H135.574V33.3796H132.855V39.91C132.855 40.3862 132.975 40.7221 133.214 40.9176C133.453 41.1132 133.745 41.211 134.091 41.211C134.437 41.211 134.775 41.1515 135.105 41.0324C135.434 40.9134 135.698 40.8113 135.895 40.7263L136.563 43.4303ZM141.405 43.813C142.245 44.1871 143.193 44.3742 144.247 44.3742C145.302 44.3742 146.249 44.1871 147.09 43.813C147.93 43.4388 148.638 42.9329 149.215 42.2951C149.792 41.6574 150.237 40.9219 150.55 40.0886C150.863 39.2553 151.019 38.3794 151.019 37.4611C151.019 36.5257 150.863 35.6414 150.55 34.8081C150.237 33.9748 149.788 33.2393 149.203 32.6015C148.618 31.9638 147.909 31.4579 147.077 31.0837C146.245 30.7096 145.302 30.5225 144.247 30.5225C143.193 30.5225 142.245 30.7096 141.405 31.0837C140.564 31.4579 139.852 31.9638 139.267 32.6015C138.682 33.2393 138.233 33.9748 137.92 34.8081C137.607 35.6414 137.45 36.5257 137.45 37.4611C137.45 38.3794 137.607 39.2553 137.92 40.0886C138.233 40.9219 138.682 41.6574 139.267 42.2951C139.852 42.9329 140.564 43.4388 141.405 43.813ZM140.861 37.4611C140.861 38.0563 140.948 38.5963 141.121 39.0809C141.294 39.5656 141.533 39.9865 141.837 40.3437C142.142 40.7008 142.501 40.9771 142.913 41.1727C143.324 41.3683 143.769 41.4661 144.247 41.4661C144.725 41.4661 145.17 41.3683 145.582 41.1727C145.994 40.9771 146.352 40.7008 146.657 40.3437C146.962 39.9865 147.201 39.5614 147.374 39.0682C147.547 38.575 147.633 38.0308 147.633 37.4356C147.633 36.8574 147.547 36.3217 147.374 35.8285C147.201 35.3353 146.962 34.9101 146.657 34.553C146.352 34.1959 145.994 33.9195 145.582 33.7239C145.17 33.5284 144.725 33.4306 144.247 33.4306C143.769 33.4306 143.324 33.5326 142.913 33.7367C142.501 33.9408 142.142 34.2214 141.837 34.5785C141.533 34.9357 141.294 35.3608 141.121 35.854C140.948 36.3472 140.861 36.8829 140.861 37.4611ZM158.556 34.3107C159.346 33.928 160.244 33.7282 161.25 33.7112V30.599C161.167 30.582 161.081 30.5735 160.99 30.5735H160.582C160.236 30.5735 159.878 30.6458 159.507 30.7904C159.136 30.9349 158.77 31.1432 158.407 31.4153C158.045 31.6874 157.707 32.0063 157.394 32.3719C157.081 32.7376 156.809 33.15 156.578 33.6092V30.7521H153.538V44.1191H156.85V36.0326C157.196 35.2673 157.765 34.6933 158.556 34.3107ZM168.761 44.3742C167.723 44.3742 166.784 44.1913 165.943 43.8257C165.103 43.4601 164.386 42.9626 163.793 42.3334C163.2 41.7042 162.743 40.9729 162.421 40.1396C162.1 39.3063 161.939 38.4305 161.939 37.5121C161.939 36.5597 162.096 35.6627 162.409 34.8209C162.722 33.979 163.175 33.2393 163.768 32.6015C164.361 31.9638 165.082 31.4579 165.931 31.0837C166.78 30.7096 167.731 30.5225 168.786 30.5225C169.84 30.5225 170.784 30.7096 171.616 31.0837C172.448 31.4579 173.156 31.9595 173.741 32.5888C174.326 33.218 174.771 33.9493 175.076 34.7826C175.381 35.6159 175.533 36.4832 175.533 37.3846C175.533 37.6056 175.529 37.8182 175.521 38.0223C175.513 38.2264 175.492 38.3964 175.459 38.5325H165.449C165.498 39.0597 165.622 39.5274 165.82 39.9355C166.017 40.3437 166.273 40.6923 166.586 40.9814C166.899 41.2705 167.253 41.4916 167.649 41.6446C168.044 41.7977 168.456 41.8742 168.885 41.8742C169.544 41.8742 170.166 41.7084 170.751 41.3768C171.336 41.0452 171.735 40.6073 171.949 40.0631L174.792 40.8794C174.314 41.8997 173.552 42.7373 172.505 43.392C171.459 44.0468 170.211 44.3742 168.761 44.3742ZM171.047 33.9025C171.682 34.5062 172.04 35.3098 172.122 36.3132H165.4C165.433 35.82 165.544 35.3693 165.733 34.9612C165.923 34.553 166.166 34.2044 166.462 33.9153C166.759 33.6262 167.101 33.4008 167.488 33.2393C167.875 33.0777 168.291 32.9969 168.736 32.9969C169.643 32.9969 170.413 33.2988 171.047 33.9025Z" fill="white"/>
<path fill-rule="evenodd" clip-rule="evenodd" d="M39.0645 11.0182C39.0645 12.7878 38.4681 14.439 37.2751 15.9727C35.8135 17.8122 34.1488 18.6383 32.2809 18.45C32.2587 18.3312 32.2472 18.2196 32.2472 18.1125V17.7773C32.2472 16.0784 32.8552 14.4871 34.0694 12.9997C34.6778 12.2462 35.4481 11.6202 36.3811 11.1239C37.3155 10.6294 38.198 10.3577 39.0308 10.3105C39.053 10.4285 39.0645 10.546 39.0645 10.6648V11.0182ZM45.1718 22.3417C42.6973 23.9457 41.4818 26.1867 41.5279 29.0654C41.5505 31.2827 42.3044 33.1471 43.7874 34.6546C44.4619 35.3391 45.2157 35.8721 46.0481 36.2486C45.9581 36.5321 45.8681 36.8084 45.7785 37.0797C45.6876 37.3509 45.5865 37.6158 45.4752 37.8753C45.2365 38.494 44.9605 39.0968 44.6486 39.6803C44.3578 40.2222 44.0482 40.7533 43.7204 41.2725C43.327 41.8747 42.916 42.4647 42.488 43.0417C42.1173 43.5371 41.7736 43.9258 41.4601 44.2103C40.559 45.0821 39.5922 45.5426 38.5572 45.5888C37.8601 45.5888 36.9594 45.3534 35.8578 44.8803C34.8667 44.433 33.9115 44.2098 32.9896 44.2098C31.9993 44.2098 31.0086 44.4343 30.0197 44.8803C28.962 45.3534 28.1079 45.6006 27.4561 45.6251C26.4423 45.6732 25.4538 45.2005 24.4853 44.2103C23.8126 43.5724 23.0223 42.5581 22.1235 41.1659C21.1124 39.634 20.2787 37.8531 19.6263 35.824C18.9292 33.6997 18.5815 31.5771 18.5815 29.4541C18.5815 27.0957 19.0529 25.0666 19.9988 23.3674C20.7407 22.0006 21.7301 20.9205 22.9674 20.1298C24.2042 19.34 25.5434 18.9331 26.9829 18.9091C27.8379 18.9091 28.8734 19.1686 30.0871 19.6875C31.3035 20.2078 32.1244 20.4659 32.5519 20.4659C32.7541 20.4659 33.6658 20.1606 35.2853 19.5464C36.7909 18.9794 38.0286 18.7453 38.9967 18.8383C41.7182 19.0992 43.7763 20.2659 45.1718 22.3417Z" fill="white"/>
</svg>
