<svg width="165" height="55" viewBox="0 0 165 55" fill="none" xmlns="http://www.w3.org/2000/svg">
<path d="M165 47.105C165 51.1696 161.735 54.466 157.708 54.466H7.29383C3.26626 54.4663 0 51.17 0 47.105V7.3604C0 3.29607 3.26626 0 7.29383 0H157.707C161.735 0 165 3.29607 165 7.3604V47.105H165Z" fill="#1E2F67"/>
<path d="M30.9704 25.2654L35.851 20.3401L20.3942 11.7304C19.1645 11.0409 17.6684 11.0447 16.4423 11.7405L30.9704 25.2654Z" fill="white"/>
<path d="M14.9894 13.1241C14.6347 13.7094 14.4314 14.3791 14.4314 15.089V39.5162C14.4314 40.2041 14.6168 40.8597 14.9516 41.4329L29.5615 26.6892L14.9894 13.1241Z" fill="white"/>
<path d="M42.3219 23.944L37.6665 21.3517L32.4352 26.6289L38.8463 32.5959L42.3239 30.6592C43.5754 29.9593 44.3248 28.7044 44.3248 27.3006C44.3223 25.8945 43.5523 24.6041 42.3219 23.944Z" fill="white"/>
<path d="M31.0262 28.0529L16.3765 42.8367C16.9949 43.1987 17.6963 43.3914 18.4112 43.3958C19.0888 43.3958 19.7704 43.2228 20.3942 42.8749L37.0089 33.6217L31.0262 28.0529Z" fill="white"/>
<path fill-rule="evenodd" clip-rule="evenodd" d="M59.2173 12.8577H57.9688C57.7536 12.6385 57.4974 12.4687 57.2001 12.3484C56.9028 12.2281 56.5871 12.168 56.2531 12.168C55.5962 12.168 55.0356 12.3872 54.5713 12.8256C54.107 13.264 53.8748 13.7906 53.8748 14.4055C53.8748 15.0257 54.107 15.555 54.5713 15.9934C55.0356 16.4318 55.5962 16.651 56.2531 16.651C56.7287 16.651 57.1619 16.5294 57.5526 16.2861C57.9433 16.0428 58.2349 15.718 58.4274 15.3117H55.4631V14.3734L59.642 14.3814V14.4937C59.642 15.3545 59.308 16.0896 58.6398 16.6991C57.9716 17.3086 57.176 17.6134 56.2531 17.6134C55.3187 17.6134 54.5203 17.3006 53.8578 16.6751C53.1953 16.0495 52.8641 15.293 52.8641 14.4055C52.8641 13.5286 53.1953 12.7775 53.8578 12.1519C54.5203 11.5264 55.3187 11.2136 56.2531 11.2136C56.8873 11.2136 57.4662 11.3607 57.99 11.6547C58.5138 11.9488 58.9229 12.3497 59.2173 12.8577ZM62.8041 16.7633C63.0986 16.7633 63.3675 16.6978 63.611 16.5668C63.8545 16.4358 64.0527 16.2527 64.2056 16.0174H65.2248C65.0436 16.4826 64.7293 16.8662 64.282 17.1683C63.8347 17.4704 63.342 17.6214 62.8041 17.6214C62.102 17.6214 61.4989 17.3835 60.995 16.9076C60.491 16.4318 60.239 15.8597 60.239 15.1914C60.239 14.5177 60.4882 13.9457 60.9865 13.4752C61.4848 13.0047 62.0906 12.7695 62.8041 12.7695C63.5119 12.7695 64.1178 13.0047 64.6218 13.4752C65.1257 13.9457 65.3777 14.5177 65.3777 15.1914L65.3692 15.416H61.1648C61.2215 15.7849 61.4083 16.1016 61.7254 16.3663C62.0425 16.631 62.4021 16.7633 62.8041 16.7633ZM64.35 14.622H61.2583C61.3942 14.328 61.6023 14.0887 61.8825 13.9042C62.1628 13.7198 62.47 13.6276 62.8041 13.6276C63.1382 13.6276 63.4468 13.7225 63.7299 13.9123C64.013 14.1021 64.2197 14.3386 64.35 14.622ZM67.4441 13.6997V17.469H66.4673V13.6997H65.7369V12.9218H66.4673V11.3419H67.4441V12.9218H68.1745V13.6997H67.4441ZM70.9993 17.469H71.9761V11.35H70.9993V17.469ZM74.4756 13.6997V17.469H73.4989V13.6997H72.7684V12.9218H73.4989V11.3419H74.4756V12.9218H75.2061V13.6997H74.4756ZM82.1418 13.4752C81.6378 13.0047 81.032 12.7695 80.3242 12.7695C79.6107 12.7695 79.0048 13.0047 78.5065 13.4752C78.0082 13.9457 77.7591 14.5177 77.7591 15.1914C77.7591 15.8597 78.011 16.4318 78.515 16.9076C79.019 17.3835 79.622 17.6214 80.3242 17.6214C81.032 17.6214 81.6378 17.3835 82.1418 16.9076C82.6458 16.4318 82.8977 15.8597 82.8977 15.1914C82.8977 14.5177 82.6458 13.9457 82.1418 13.4752ZM78.6594 15.1914C78.6594 15.6245 78.8222 15.9947 79.1478 16.3021C79.4734 16.6096 79.8655 16.7633 80.3242 16.7633C80.7828 16.7633 81.1749 16.6096 81.5005 16.3021C81.8261 15.9947 81.9889 15.6245 81.9889 15.1914C81.9889 14.7583 81.8275 14.3894 81.5048 14.0847C81.182 13.7799 80.7885 13.6276 80.3242 13.6276C79.8655 13.6276 79.4734 13.7813 79.1478 14.0887C78.8222 14.3961 78.6594 14.7637 78.6594 15.1914ZM87.13 15.0952V17.469H88.1068V15.031C88.1068 14.5391 88.0346 14.1194 87.8902 13.7719C87.7458 13.4244 87.4967 13.1704 87.1428 13.01C86.7889 12.8496 86.4534 12.7695 86.1363 12.7695C85.8871 12.7695 85.6436 12.8109 85.4058 12.8938C85.168 12.9766 84.9613 13.1009 84.7858 13.2667V12.9218H83.8175V17.469H84.7858V15.1754C84.7858 14.8706 84.824 14.5926 84.9004 14.3413C84.9769 14.09 85.1 13.9163 85.2699 13.82C85.4398 13.7238 85.5757 13.665 85.6776 13.6436C85.7795 13.6222 85.8843 13.6115 85.9919 13.6115C86.2184 13.6115 86.4307 13.665 86.6289 13.7719C86.8271 13.8788 86.9601 14.0486 87.0281 14.2812C87.096 14.5137 87.13 14.7851 87.13 15.0952Z" fill="white"/>
<path fill-rule="evenodd" clip-rule="evenodd" d="M69.5193 20.8252H66.8472V33.0327C66.8472 33.8612 67.0765 34.4993 67.5352 34.947C67.9938 35.3947 68.6419 35.6185 69.4794 35.6185C69.8649 35.6185 70.2969 35.5717 70.7755 35.4782C71.2541 35.3847 71.6728 35.251 72.0318 35.0773L71.6728 33.0327C71.5 33.1129 71.3172 33.1797 71.1245 33.2331C70.9317 33.2866 70.7556 33.3133 70.596 33.3133C70.2504 33.3133 69.9845 33.2064 69.7984 32.9926C69.6123 32.7788 69.5193 32.4781 69.5193 32.0906V20.8252ZM54.466 35.4582V21.2261H60.4681C61.1195 21.2261 61.7211 21.3631 62.2727 21.637C62.8244 21.911 63.2997 22.2718 63.6985 22.7195C64.0973 23.1671 64.4097 23.6749 64.6357 24.2429C64.8617 24.8108 64.9747 25.3821 64.9747 25.9568C64.9747 26.5581 64.8683 27.1428 64.6556 27.7107C64.4429 28.2787 64.1438 28.7831 63.7583 29.2241C63.3728 29.6651 62.9075 30.0192 62.3625 30.2865C61.8174 30.5538 61.2192 30.6874 60.5678 30.6874H57.2178V35.4582H54.466ZM57.2178 28.2619H60.4083C60.9135 28.2619 61.3355 28.0548 61.6745 27.6405C62.0135 27.2263 62.183 26.665 62.183 25.9568C62.183 25.5959 62.1298 25.2719 62.0235 24.9846C61.9171 24.6972 61.7776 24.4534 61.6047 24.2529C61.4319 24.0525 61.2292 23.9021 60.9965 23.8019C60.7639 23.7017 60.5279 23.6516 60.2887 23.6516H57.2178V28.2619ZM76.2772 35.6586C75.772 35.6586 75.3001 35.5751 74.8614 35.408C74.4227 35.241 74.0439 35.0071 73.7248 34.7065C73.4058 34.4058 73.1565 34.055 72.977 33.6541C72.7976 33.2532 72.7078 32.8122 72.7078 32.3311C72.7078 31.8367 72.8175 31.379 73.0369 30.958C73.2562 30.5371 73.562 30.1796 73.9541 29.8856C74.3463 29.5916 74.8149 29.3611 75.3599 29.194C75.905 29.027 76.5032 28.9435 77.1546 28.9435C77.6199 28.9435 78.0752 28.9836 78.5205 29.0638C78.9659 29.1439 79.3614 29.2575 79.707 29.4045V28.8032C79.707 28.1083 79.5109 27.5737 79.1187 27.1996C78.7266 26.8254 78.145 26.6383 77.3739 26.6383C76.8156 26.6383 76.2706 26.7385 75.7388 26.939C75.2071 27.1394 74.662 27.4334 74.1037 27.821L73.2861 26.1171C74.6288 25.2218 76.0778 24.7741 77.6332 24.7741C79.1354 24.7741 80.3019 25.1449 81.1327 25.8866C81.9636 26.6283 82.379 27.7007 82.379 29.1038V32.3712C82.379 32.6518 82.4289 32.8523 82.5286 32.9726C82.6283 33.0928 82.7911 33.1596 83.0171 33.173V35.4582C82.5651 35.5517 82.173 35.5985 81.8406 35.5985C81.3355 35.5985 80.9466 35.4849 80.6741 35.2577C80.4016 35.0305 80.2321 34.7299 80.1656 34.3557L80.1058 33.7744C79.6405 34.3891 79.0755 34.8568 78.4109 35.1775C77.7462 35.4982 77.035 35.6586 76.2772 35.6586ZM78.3211 33.4536C77.9157 33.614 77.4869 33.6942 77.035 33.6942C76.5298 33.6942 76.1044 33.5438 75.7588 33.2432C75.4131 32.9425 75.2403 32.565 75.2403 32.1106C75.2403 31.6295 75.4596 31.232 75.8983 30.9179C76.337 30.6039 76.902 30.4469 77.5933 30.4469C77.9389 30.4469 78.2979 30.4836 78.6701 30.5571C79.0423 30.6306 79.3879 30.7275 79.707 30.8478V32.0505C79.707 32.3311 79.5608 32.585 79.2683 32.8122C79.0423 33.0795 78.7266 33.2933 78.3211 33.4536ZM85.0691 37.5028C85.2951 37.5696 85.5145 37.6197 85.7272 37.6531C85.9399 37.6865 86.1193 37.7032 86.2656 37.7032C86.4384 37.7032 86.5979 37.6698 86.7441 37.603C86.8904 37.5362 87.0233 37.4192 87.1429 37.2522C87.2626 37.0852 87.3822 36.8546 87.5019 36.5606C87.6215 36.2666 87.7478 35.8992 87.8807 35.4582L83.753 24.9545H86.5048L89.3364 33.1329L91.8489 24.9545H94.3614L89.9745 37.5429C89.7219 38.2778 89.2899 38.8792 88.6784 39.3469C88.0668 39.8146 87.3091 40.0485 86.4051 40.0485C86.1924 40.0485 85.9764 40.0318 85.7571 39.9984C85.5377 39.965 85.3084 39.9082 85.0691 39.828V37.5028ZM108.725 24.5736C108.971 24.734 109.14 24.861 109.233 24.9545L110.45 22.7094C109.825 22.2818 109.094 21.911 108.256 21.5969C107.419 21.2829 106.501 21.1259 105.504 21.1259C104.787 21.1259 104.115 21.2228 103.49 21.4165C102.866 21.6103 102.317 21.8943 101.845 22.2684C101.373 22.6426 101.005 23.1103 100.739 23.6716C100.473 24.2329 100.34 24.8743 100.34 25.5959C100.34 26.1438 100.423 26.6149 100.589 27.0091C100.755 27.4033 101.004 27.7508 101.337 28.0515C101.669 28.3522 102.085 28.6127 102.583 28.8332C103.082 29.0537 103.67 29.2575 104.348 29.4446C104.906 29.605 105.411 29.752 105.863 29.8856C106.315 30.0192 106.701 30.1662 107.02 30.3266C107.339 30.487 107.585 30.674 107.758 30.8879C107.931 31.1017 108.017 31.3623 108.017 31.6696C108.017 32.6452 107.259 33.1329 105.744 33.1329C105.199 33.1329 104.667 33.0661 104.148 32.9325C103.63 32.7988 103.158 32.6351 102.733 32.4414C102.307 32.2476 101.938 32.0538 101.626 31.8601C101.314 31.6663 101.098 31.5093 100.978 31.389L99.7615 33.7744C100.586 34.3624 101.516 34.8167 102.553 35.1374C103.59 35.4582 104.64 35.6185 105.704 35.6185C106.395 35.6185 107.056 35.5417 107.688 35.388C108.319 35.2343 108.878 34.9904 109.363 34.6564C109.848 34.3223 110.234 33.8846 110.519 33.3434C110.805 32.8022 110.948 32.1507 110.948 31.389C110.948 30.7342 110.842 30.1829 110.629 29.7353C110.416 29.2876 110.114 28.9034 109.722 28.5827C109.33 28.2619 108.851 27.9947 108.286 27.7809C107.721 27.567 107.093 27.3666 106.402 27.1795C105.87 27.0459 105.401 26.9189 104.996 26.7987C104.59 26.6784 104.255 26.5447 103.989 26.3977C103.723 26.2507 103.52 26.0804 103.381 25.8866C103.241 25.6928 103.171 25.4489 103.171 25.1549C103.171 24.6471 103.357 24.2529 103.73 23.9723C104.102 23.6917 104.667 23.5513 105.425 23.5513C105.85 23.5513 106.269 23.6048 106.681 23.7117C107.093 23.8186 107.475 23.9489 107.828 24.1026C108.18 24.2563 108.479 24.4133 108.725 24.5736ZM119.142 34.9169C118.783 35.0773 118.344 35.2377 117.826 35.398C117.307 35.5584 116.762 35.6386 116.191 35.6386C115.818 35.6386 115.47 35.5918 115.144 35.4982C114.818 35.4047 114.532 35.2544 114.286 35.0472C114.04 34.8401 113.844 34.5728 113.698 34.2454C113.552 33.918 113.479 33.5205 113.479 33.0527V27.0191H112.103V24.9545H113.479V21.5468H116.151V24.9545H118.344V27.0191H116.151V32.1507C116.151 32.5249 116.247 32.7888 116.44 32.9425C116.633 33.0962 116.869 33.173 117.148 33.173C117.427 33.173 117.7 33.1262 117.965 33.0327C118.231 32.9391 118.444 32.859 118.604 32.7922L119.142 34.9169ZM123.048 35.2176C123.726 35.5116 124.491 35.6586 125.342 35.6586C126.192 35.6586 126.957 35.5116 127.635 35.2176C128.313 34.9236 128.884 34.5261 129.35 34.0249C129.815 33.5238 130.174 32.9458 130.426 32.291C130.679 31.6362 130.805 30.948 130.805 30.2264C130.805 29.4914 130.679 28.7965 130.426 28.1417C130.174 27.4869 129.812 26.9089 129.34 26.4078C128.868 25.9066 128.296 25.5091 127.625 25.2151C126.953 24.9211 126.192 24.7741 125.342 24.7741C124.491 24.7741 123.726 24.9211 123.048 25.2151C122.37 25.5091 121.795 25.9066 121.323 26.4078C120.852 26.9089 120.489 27.4869 120.237 28.1417C119.984 28.7965 119.858 29.4914 119.858 30.2264C119.858 30.948 119.984 31.6362 120.237 32.291C120.489 32.9458 120.852 33.5238 121.323 34.0249C121.795 34.5261 122.37 34.9236 123.048 35.2176ZM122.61 30.2264C122.61 30.6941 122.679 31.1184 122.819 31.4992C122.959 31.8801 123.151 32.2108 123.397 32.4915C123.643 32.7721 123.932 32.9893 124.265 33.1429C124.597 33.2966 124.956 33.3735 125.342 33.3735C125.727 33.3735 126.086 33.2966 126.418 33.1429C126.751 32.9893 127.04 32.7721 127.286 32.4915C127.532 32.2108 127.724 31.8768 127.864 31.4892C128.004 31.1017 128.073 30.674 128.073 30.2063C128.073 29.752 128.004 29.331 127.864 28.9435C127.724 28.5559 127.532 28.2219 127.286 27.9412C127.04 27.6606 126.751 27.4434 126.418 27.2898C126.086 27.1361 125.727 27.0592 125.342 27.0592C124.956 27.0592 124.597 27.1394 124.265 27.2998C123.932 27.4601 123.643 27.6806 123.397 27.9613C123.151 28.2419 122.959 28.576 122.819 28.9635C122.679 29.3511 122.61 29.772 122.61 30.2264ZM136.885 27.7508C137.523 27.4501 138.248 27.2931 139.059 27.2797V24.8342C138.992 24.8209 138.922 24.8142 138.849 24.8142H138.52C138.241 24.8142 137.952 24.871 137.653 24.9846C137.354 25.0982 137.058 25.2619 136.766 25.4757C136.473 25.6895 136.201 25.94 135.948 26.2274C135.695 26.5147 135.476 26.8387 135.29 27.1996V24.9545H132.837V35.4582H135.509V29.1038C135.788 28.5025 136.247 28.0515 136.885 27.7508ZM145.119 35.6586C144.281 35.6586 143.524 35.515 142.846 35.2276C142.168 34.9403 141.589 34.5494 141.111 34.055C140.632 33.5605 140.263 32.9859 140.004 32.3311C139.745 31.6763 139.615 30.9881 139.615 30.2665C139.615 29.5181 139.741 28.8132 139.994 28.1517C140.247 27.4902 140.612 26.9089 141.091 26.4078C141.569 25.9066 142.151 25.5091 142.836 25.2151C143.52 24.9211 144.288 24.7741 145.139 24.7741C145.99 24.7741 146.751 24.9211 147.422 25.2151C148.093 25.5091 148.665 25.9033 149.137 26.3977C149.609 26.8922 149.968 27.4668 150.214 28.1216C150.46 28.7764 150.583 29.458 150.583 30.1662C150.583 30.34 150.579 30.507 150.573 30.6674C150.566 30.8277 150.549 30.9614 150.523 31.0683H142.447C142.487 31.4825 142.586 31.85 142.746 32.1708C142.905 32.4915 143.111 32.7654 143.364 32.9926C143.617 33.2198 143.902 33.3935 144.221 33.5138C144.541 33.634 144.873 33.6942 145.218 33.6942C145.75 33.6942 146.252 33.5639 146.724 33.3033C147.196 33.0427 147.518 32.6986 147.691 32.271L149.984 32.9124C149.599 33.7142 148.984 34.3724 148.14 34.8869C147.296 35.4014 146.289 35.6586 145.119 35.6586ZM146.963 27.4301C147.475 27.9045 147.764 28.5359 147.831 29.3243H142.407C142.433 28.9368 142.523 28.5827 142.676 28.2619C142.829 27.9412 143.025 27.6673 143.264 27.4401C143.504 27.2129 143.779 27.0359 144.092 26.9089C144.404 26.7819 144.74 26.7185 145.099 26.7185C145.83 26.7185 146.451 26.9557 146.963 27.4301Z" fill="white"/>
</svg>
