<svg width="203" height="68" viewBox="0 0 203 68" fill="none" xmlns="http://www.w3.org/2000/svg">
<path d="M202.075 58.1956C202.075 63.1741 198.077 67.2116 193.145 67.2116H8.93276C4.00018 67.212 0 63.1745 0 58.1956V9.51524C0 4.53712 4.00018 0.5 8.93276 0.5H193.144C198.076 0.5 202.075 4.53712 202.075 9.51524V58.1956H202.075Z" fill="#161616"/>
<path d="M37.9299 31.4457L43.9071 25.4131L24.9771 14.8677C23.4712 14.0231 21.6389 14.0278 20.1372 14.88L37.9299 31.4457Z" fill="url(#paint0_linear)"/>
<path d="M18.3577 16.5747C17.9233 17.2915 17.6743 18.1118 17.6743 18.9813V48.9005C17.6743 49.743 17.9013 50.546 18.3113 51.2481L36.2041 33.1896L18.3577 16.5747Z" fill="url(#paint1_linear)"/>
<path d="M51.8319 29.8273L46.1305 26.6521L39.7236 33.1158L47.5753 40.4244L51.8344 38.0522C53.3671 37.195 54.2848 35.6579 54.2848 33.9385C54.2818 32.2162 53.3388 30.6357 51.8319 29.8273Z" fill="url(#paint2_linear)"/>
<path d="M37.9982 34.8599L20.0566 52.9676C20.814 53.4109 21.673 53.647 22.5486 53.6523C23.3784 53.6523 24.2131 53.4405 24.9771 53.0144L45.3251 41.6807L37.9982 34.8599Z" fill="url(#paint3_linear)"/>
<path fill-rule="evenodd" clip-rule="evenodd" d="M72.5235 16.2483H70.9944C70.7309 15.9798 70.4171 15.7719 70.053 15.6245C69.6889 15.4772 69.3023 15.4035 68.8932 15.4035C68.0887 15.4035 67.4022 15.672 66.8335 16.209C66.2649 16.746 65.9805 17.391 65.9805 18.1441C65.9805 18.9037 66.2649 19.552 66.8335 20.089C67.4022 20.626 68.0887 20.8945 68.8932 20.8945C69.4757 20.8945 70.0062 20.7455 70.4847 20.4475C70.9632 20.1496 71.3203 19.7518 71.5561 19.2541H67.9258V18.1048L73.0436 18.1146V18.2521C73.0436 19.3065 72.6345 20.2069 71.8162 20.9534C70.9979 21.7 70.0235 22.0732 68.8932 22.0732C67.7489 22.0732 66.7711 21.6901 65.9597 20.924C65.1484 20.1578 64.7427 19.2312 64.7427 18.1441C64.7427 17.0701 65.1484 16.1501 65.9597 15.3839C66.7711 14.6177 67.7489 14.2346 68.8932 14.2346C69.6699 14.2346 70.3789 14.4147 71.0204 14.7749C71.6619 15.135 72.1629 15.6262 72.5235 16.2483ZM76.9162 21.032C77.2768 21.032 77.6062 20.9518 77.9044 20.7913C78.2026 20.6309 78.4454 20.4066 78.6326 20.1185H79.8809C79.659 20.6882 79.2741 21.1581 78.7262 21.5281C78.1784 21.898 77.575 22.083 76.9162 22.083C76.0563 22.083 75.3178 21.7916 74.7006 21.2088C74.0834 20.626 73.7748 19.9253 73.7748 19.1067C73.7748 18.2816 74.0799 17.5809 74.6902 17.0047C75.3004 16.4284 76.0424 16.1402 76.9162 16.1402C77.7831 16.1402 78.5251 16.4284 79.1423 17.0047C79.7595 17.5809 80.0681 18.2816 80.0681 19.1067L80.0577 19.3818H74.9086C74.978 19.8336 75.2068 20.2216 75.5952 20.5458C75.9835 20.8699 76.4239 21.032 76.9162 21.032ZM78.8094 18.4093H75.023C75.1895 18.0491 75.4443 17.7561 75.7876 17.5302C76.1309 17.3042 76.5071 17.1913 76.9162 17.1913C77.3254 17.1913 77.7033 17.3075 78.0501 17.54C78.3968 17.7725 78.6499 18.0622 78.8094 18.4093ZM82.5988 17.2797V21.8964H81.4026V17.2797H80.508V16.3269H81.4026V14.3918H82.5988V16.3269H83.4934V17.2797H82.5988ZM86.9529 21.8964H88.1491V14.4016H86.9529V21.8964ZM91.2104 17.2797V21.8964H90.0141V17.2797H89.1195V16.3269H90.0141V14.3918H91.2104V16.3269H92.105V17.2797H91.2104ZM100.599 17.0047C99.9819 16.4284 99.2399 16.1402 98.373 16.1402C97.4992 16.1402 96.7572 16.4284 96.147 17.0047C95.5367 17.5809 95.2316 18.2816 95.2316 19.1067C95.2316 19.9253 95.5402 20.626 96.1574 21.2088C96.7746 21.7916 97.5131 22.083 98.373 22.083C99.2399 22.083 99.9819 21.7916 100.599 21.2088C101.216 20.626 101.525 19.9253 101.525 19.1067C101.525 18.2816 101.216 17.5809 100.599 17.0047ZM96.3342 19.1067C96.3342 19.6372 96.5336 20.0906 96.9323 20.4672C97.3311 20.8437 97.8113 21.032 98.373 21.032C98.9347 21.032 99.415 20.8437 99.8137 20.4672C100.212 20.0906 100.412 19.6372 100.412 19.1067C100.412 18.5763 100.214 18.1245 99.8189 17.7512C99.4236 17.3779 98.9417 17.1913 98.373 17.1913C97.8113 17.1913 97.3311 17.3796 96.9323 17.7561C96.5336 18.1326 96.3342 18.5828 96.3342 19.1067ZM106.708 18.9889V21.8964H107.904V18.9103C107.904 18.3078 107.816 17.7938 107.639 17.3681C107.462 16.9424 107.157 16.6314 106.724 16.4349C106.29 16.2385 105.879 16.1402 105.491 16.1402C105.186 16.1402 104.888 16.191 104.597 16.2925C104.305 16.394 104.052 16.5463 103.837 16.7493V16.3269H102.651V21.8964H103.837V19.0871C103.837 18.7138 103.884 18.3733 103.978 18.0655C104.071 17.7577 104.222 17.5449 104.43 17.427C104.638 17.3092 104.805 17.2371 104.929 17.2109C105.054 17.1847 105.183 17.1716 105.314 17.1716C105.592 17.1716 105.852 17.2371 106.094 17.3681C106.337 17.4991 106.5 17.707 106.583 17.9918C106.667 18.2767 106.708 18.609 106.708 18.9889Z" fill="white"/>
<path fill-rule="evenodd" clip-rule="evenodd" d="M85.1403 26.0073H81.8679V40.9594C81.8679 41.9742 82.1487 42.7558 82.7104 43.3041C83.2721 43.8525 84.0658 44.1266 85.0915 44.1266C85.5636 44.1266 86.0927 44.0693 86.6788 43.9548C87.265 43.8402 87.7778 43.6765 88.2174 43.4637L87.7778 40.9594C87.5661 41.0576 87.3423 41.1395 87.1062 41.2049C86.8701 41.2704 86.6544 41.3032 86.459 41.3032C86.0357 41.3032 85.7101 41.1722 85.4822 40.9103C85.2543 40.6484 85.1403 40.2802 85.1403 39.8055V26.0073ZM66.7046 43.9302V26.4984H74.0554C74.8531 26.4984 75.5898 26.6661 76.2655 27.0017C76.9412 27.3372 77.5232 27.7792 78.0116 28.3275C78.5001 28.8758 78.8826 29.4978 79.1594 30.1934C79.4362 30.8891 79.5746 31.5888 79.5746 32.2926C79.5746 33.0292 79.4443 33.7453 79.1838 34.4409C78.9233 35.1365 78.557 35.7544 78.0849 36.2946C77.6127 36.8347 77.0429 37.2685 76.3754 37.5958C75.7079 37.9232 74.9753 38.0869 74.1775 38.0869H70.0747V43.9302H66.7046ZM70.0747 35.1161H73.9821C74.6008 35.1161 75.1177 34.8624 75.5329 34.355C75.948 33.8476 76.1556 33.1601 76.1556 32.2926C76.1556 31.8507 76.0905 31.4538 75.9602 31.1018C75.83 30.7499 75.659 30.4512 75.4474 30.2057C75.2357 29.9602 74.9875 29.776 74.7025 29.6533C74.4176 29.5305 74.1286 29.4691 73.8356 29.4691H70.0747V35.1161ZM93.4168 44.1757C92.7981 44.1757 92.2201 44.0734 91.6829 43.8688C91.1456 43.6642 90.6816 43.3778 90.2909 43.0095C89.9001 42.6412 89.5949 42.2116 89.3751 41.7205C89.1553 41.2295 89.0454 40.6894 89.0454 40.1001C89.0454 39.4945 89.1797 38.9339 89.4483 38.4183C89.717 37.9027 90.0914 37.4649 90.5717 37.1048C91.052 36.7447 91.6259 36.4623 92.2934 36.2577C92.9609 36.0531 93.6935 35.9508 94.4913 35.9508C95.0611 35.9508 95.6188 35.9999 96.1642 36.0982C96.7096 36.1964 97.1939 36.3355 97.6172 36.5155V35.779C97.6172 34.9278 97.3771 34.2731 96.8968 33.8148C96.4165 33.3565 95.7042 33.1274 94.7599 33.1274C94.0761 33.1274 93.4086 33.2501 92.7574 33.4957C92.1062 33.7412 91.4387 34.1013 90.7549 34.5759L89.7536 32.489C91.398 31.3924 93.1726 30.844 95.0774 30.844C96.9172 30.844 98.3458 31.2983 99.3633 32.2067C100.381 33.1151 100.89 34.4286 100.89 36.1473V40.1492C100.89 40.4929 100.951 40.7385 101.073 40.8858C101.195 41.0331 101.394 41.1149 101.671 41.1313V43.9302C101.118 44.0448 100.637 44.1021 100.23 44.1021C99.6116 44.1021 99.1354 43.9629 98.8017 43.6847C98.4679 43.4064 98.2603 43.0382 98.1789 42.5799L98.1057 41.8678C97.5358 42.6208 96.8439 43.1936 96.0298 43.5865C95.2158 43.9793 94.3448 44.1757 93.4168 44.1757ZM95.92 41.475C95.4234 41.6714 94.8983 41.7696 94.3448 41.7696C93.7261 41.7696 93.2051 41.5855 92.7818 41.2172C92.3585 40.8489 92.1469 40.3866 92.1469 39.83C92.1469 39.2408 92.4155 38.7539 92.9528 38.3692C93.49 37.9846 94.182 37.7922 95.0286 37.7922C95.4519 37.7922 95.8915 37.8372 96.3473 37.9273C96.8032 38.0173 97.2265 38.136 97.6172 38.2833V39.7564C97.6172 40.1001 97.4381 40.4111 97.08 40.6894C96.8032 41.0167 96.4165 41.2786 95.92 41.475ZM104.184 46.4345C104.461 46.5163 104.73 46.5777 104.99 46.6186C105.251 46.6596 105.47 46.68 105.649 46.68C105.861 46.68 106.057 46.6391 106.236 46.5573C106.415 46.4754 106.577 46.3322 106.724 46.1276C106.871 45.923 107.017 45.6407 107.164 45.2806C107.31 44.9205 107.465 44.4704 107.628 43.9302L102.572 31.065H105.943L109.41 41.0822L112.487 31.065H115.565L110.192 46.4836C109.883 47.3838 109.353 48.1204 108.604 48.6933C107.856 49.2662 106.928 49.5526 105.82 49.5526C105.56 49.5526 105.295 49.5321 105.027 49.4912C104.758 49.4503 104.477 49.3807 104.184 49.2825V46.4345ZM133.155 30.5985C133.457 30.7949 133.664 30.9504 133.778 31.065L135.268 28.3152C134.503 27.7914 133.607 27.3372 132.581 26.9526C131.556 26.5679 130.432 26.3756 129.211 26.3756C128.332 26.3756 127.51 26.4943 126.745 26.7316C125.98 26.9689 125.308 27.3168 124.73 27.7751C124.152 28.2334 123.7 28.8062 123.375 29.4937C123.049 30.1811 122.886 30.9668 122.886 31.8507C122.886 32.5218 122.988 33.0987 123.192 33.5816C123.395 34.0644 123.7 34.49 124.107 34.8583C124.514 35.2266 125.023 35.5457 125.634 35.8158C126.244 36.0859 126.965 36.3355 127.795 36.5646C128.479 36.7611 129.097 36.9411 129.651 37.1048C130.204 37.2685 130.677 37.4485 131.067 37.6449C131.458 37.8413 131.759 38.0705 131.971 38.3324C132.183 38.5943 132.288 38.9134 132.288 39.2899C132.288 40.4848 131.36 41.0822 129.504 41.0822C128.837 41.0822 128.186 41.0003 127.551 40.8367C126.916 40.673 126.338 40.4725 125.817 40.2351C125.296 39.9978 124.844 39.7605 124.461 39.5231C124.079 39.2858 123.814 39.0935 123.668 38.9462L122.178 41.8678C123.187 42.588 124.327 43.1445 125.597 43.5374C126.867 43.9302 128.153 44.1266 129.456 44.1266C130.302 44.1266 131.112 44.0325 131.885 43.8443C132.659 43.656 133.343 43.3573 133.937 42.9481C134.531 42.5389 135.003 42.0029 135.353 41.34C135.703 40.6771 135.878 39.8791 135.878 38.9462C135.878 38.1441 135.748 37.469 135.488 36.9206C135.227 36.3723 134.857 35.9017 134.376 35.5089C133.896 35.1161 133.31 34.7887 132.618 34.5268C131.926 34.2649 131.157 34.0194 130.31 33.7903C129.659 33.6266 129.085 33.4711 128.589 33.3238C128.092 33.1765 127.681 33.0128 127.355 32.8328C127.03 32.6527 126.781 32.444 126.61 32.2067C126.44 31.9693 126.354 31.6706 126.354 31.3105C126.354 30.6885 126.582 30.2057 127.038 29.862C127.494 29.5182 128.186 29.3464 129.114 29.3464C129.635 29.3464 130.147 29.4119 130.652 29.5428C131.157 29.6737 131.625 29.8333 132.056 30.0216C132.488 30.2098 132.854 30.4021 133.155 30.5985ZM145.913 43.2673C145.474 43.4637 144.936 43.6601 144.301 43.8566C143.666 44.053 142.999 44.1512 142.299 44.1512C141.843 44.1512 141.416 44.0939 141.017 43.9793C140.618 43.8647 140.268 43.6806 139.967 43.4269C139.665 43.1732 139.425 42.8458 139.246 42.4448C139.067 42.0438 138.978 41.5569 138.978 40.984V33.5939H137.292V31.065H138.978V26.8912H142.25V31.065H144.936V33.5939H142.25V39.8791C142.25 40.3374 142.368 40.6607 142.604 40.8489C142.84 41.0372 143.129 41.1313 143.471 41.1313C143.813 41.1313 144.147 41.074 144.472 40.9594C144.798 40.8449 145.058 40.7466 145.254 40.6648L145.913 43.2673ZM150.697 43.6356C151.528 43.9957 152.464 44.1757 153.506 44.1757C154.548 44.1757 155.484 43.9957 156.314 43.6356C157.145 43.2755 157.845 42.7885 158.414 42.1747C158.984 41.5609 159.424 40.853 159.733 40.051C160.043 39.249 160.197 38.406 160.197 37.5222C160.197 36.6219 160.043 35.7708 159.733 34.9688C159.424 34.1667 158.98 33.4588 158.402 32.845C157.824 32.2312 157.124 31.7443 156.302 31.3842C155.48 31.0241 154.548 30.844 153.506 30.844C152.464 30.844 151.528 31.0241 150.697 31.3842C149.867 31.7443 149.163 32.2312 148.585 32.845C148.007 33.4588 147.563 34.1667 147.254 34.9688C146.945 35.7708 146.79 36.6219 146.79 37.5222C146.79 38.406 146.945 39.249 147.254 40.051C147.563 40.853 148.007 41.5609 148.585 42.1747C149.163 42.7885 149.867 43.2755 150.697 43.6356ZM150.16 37.5222C150.16 38.095 150.246 38.6147 150.417 39.0812C150.587 39.5477 150.824 39.9528 151.125 40.2965C151.426 40.6403 151.78 40.9062 152.187 41.0945C152.594 41.2827 153.034 41.3768 153.506 41.3768C153.978 41.3768 154.418 41.2827 154.825 41.0945C155.232 40.9062 155.586 40.6403 155.887 40.2965C156.188 39.9528 156.424 39.5436 156.595 39.0689C156.766 38.5943 156.852 38.0705 156.852 37.4976C156.852 36.9411 156.766 36.4255 156.595 35.9508C156.424 35.4762 156.188 35.067 155.887 34.7232C155.586 34.3795 155.232 34.1135 154.825 33.9253C154.418 33.7371 153.978 33.643 153.506 33.643C153.034 33.643 152.594 33.7412 152.187 33.9376C151.78 34.134 151.426 34.4041 151.125 34.7478C150.824 35.0915 150.587 35.5007 150.417 35.9754C150.246 36.4501 150.16 36.9657 150.16 37.5222ZM167.643 34.49C168.425 34.1217 169.312 33.9294 170.305 33.913V30.9177C170.224 30.9013 170.138 30.8932 170.049 30.8932H169.646C169.304 30.8932 168.95 30.9627 168.584 31.1018C168.217 31.241 167.855 31.4415 167.497 31.7034C167.139 31.9653 166.805 32.2721 166.496 32.6241C166.186 32.976 165.918 33.3729 165.69 33.8148V31.065H162.686V43.9302H165.958V36.1473C166.3 35.4107 166.862 34.8583 167.643 34.49ZM177.727 44.1757C176.701 44.1757 175.773 43.9998 174.943 43.6479C174.113 43.2959 173.404 42.8172 172.818 42.2116C172.232 41.606 171.78 40.9021 171.463 40.1001C171.146 39.2981 170.987 38.4551 170.987 37.5713C170.987 36.6547 171.141 35.7913 171.451 34.981C171.76 34.1708 172.208 33.4588 172.794 32.845C173.38 32.2312 174.092 31.7443 174.931 31.3842C175.769 31.0241 176.709 30.844 177.751 30.844C178.793 30.844 179.726 31.0241 180.548 31.3842C181.37 31.7443 182.07 32.2271 182.648 32.8328C183.226 33.4384 183.665 34.1422 183.967 34.9442C184.268 35.7462 184.418 36.581 184.418 37.4485C184.418 37.6613 184.414 37.8659 184.406 38.0623C184.398 38.2587 184.378 38.4224 184.345 38.5533H174.455C174.503 39.0608 174.626 39.5109 174.821 39.9037C175.016 40.2965 175.269 40.6321 175.578 40.9103C175.887 41.1886 176.237 41.4014 176.628 41.5487C177.019 41.696 177.426 41.7696 177.849 41.7696C178.5 41.7696 179.115 41.6101 179.693 41.2909C180.271 40.9717 180.666 40.5502 180.877 40.0265L183.686 40.8121C183.214 41.7942 182.461 42.6003 181.427 43.2305C180.393 43.8606 179.16 44.1757 177.727 44.1757ZM179.986 34.0972C180.613 34.6782 180.967 35.4516 181.048 36.4173H174.406C174.438 35.9427 174.548 35.5089 174.735 35.1161C174.923 34.7232 175.163 34.3877 175.456 34.1094C175.749 33.8312 176.087 33.6143 176.469 33.4588C176.852 33.3033 177.263 33.2256 177.703 33.2256C178.598 33.2256 179.359 33.5161 179.986 34.0972Z" fill="white"/>
<defs>
<linearGradient id="paint0_linear" x1="6.27291" y1="10.1385" x2="15.4932" y2="26.6695" gradientUnits="userSpaceOnUse">
<stop stop-color="#32A071"/>
<stop offset="0.069" stop-color="#2DA771"/>
<stop offset="0.476" stop-color="#15CF74"/>
<stop offset="0.801" stop-color="#06E775"/>
<stop offset="1" stop-color="#00F076"/>
</linearGradient>
<linearGradient id="paint1_linear" x1="28.4118" y1="-4.19283" x2="0.121437" y2="3.60436" gradientUnits="userSpaceOnUse">
<stop stop-color="#00A0FF"/>
<stop offset="0.007" stop-color="#00A1FF"/>
<stop offset="0.26" stop-color="#00BEFF"/>
<stop offset="0.512" stop-color="#00D2FF"/>
<stop offset="0.76" stop-color="#00DFFF"/>
<stop offset="1" stop-color="#00E3FF"/>
</linearGradient>
<linearGradient id="paint2_linear" x1="55.3681" y1="17.1686" x2="20.7286" y2="17.1686" gradientUnits="userSpaceOnUse">
<stop stop-color="#FFE000"/>
<stop offset="0.409" stop-color="#FFBD00"/>
<stop offset="0.775" stop-color="#FFA500"/>
<stop offset="1" stop-color="#FF9C00"/>
</linearGradient>
<linearGradient id="paint3_linear" x1="19.4926" y1="25.416" x2="-3.3744" y2="65.3065" gradientUnits="userSpaceOnUse">
<stop stop-color="#FF3A44"/>
<stop offset="1" stop-color="#C31162"/>
</linearGradient>
</defs>
</svg>
