<svg width="25" height="25" viewBox="0 0 25 25" fill="none" xmlns="http://www.w3.org/2000/svg">
<g id="Group 31">
<path id="Combined Shape" fill-rule="evenodd" clip-rule="evenodd" d="M12.4955 0.0261926C10.7882 -0.0347039 9.07881 0.0113301 7.37729 0.164025C6.33375 0.159865 5.29826 0.346719 4.32199 0.715353C3.47774 0.985784 2.71265 1.45903 2.09369 2.09367C1.46062 2.70938 0.987478 3.47035 0.715358 4.31047C0.278212 5.2706 0.0886607 6.32498 0.164026 7.37724C0.0113302 9.07875 -0.0347042 10.7881 0.0261928 12.4954C-0.0349923 14.205 0.0110424 15.9167 0.164026 17.6205C0.160707 18.6617 0.347549 19.6948 0.715358 20.6688C0.987478 21.509 1.46062 22.2699 2.09369 22.8857C2.7094 23.5187 3.47037 23.9919 4.3105 24.264C5.28905 24.641 6.32861 24.8349 7.37729 24.836C9.0811 24.989 10.7928 25.035 12.5024 24.9738C14.212 25.035 15.9237 24.989 17.6275 24.836C18.6688 24.8386 19.7019 24.6509 20.6759 24.2823C22.3668 23.6998 23.6954 22.3713 24.2779 20.6803C24.6495 19.7031 24.8387 18.666 24.8362 17.6205C24.8362 17.0806 24.8573 16.6873 24.883 16.2089V16.2089L24.883 16.2088V16.2088V16.2088C24.923 15.4658 24.974 14.5173 24.974 12.4954C25.0349 10.7881 24.9888 9.07875 24.8362 7.37724C24.8387 6.33588 24.6511 5.3028 24.2825 4.32885C24.0078 3.48028 23.5281 2.71256 22.8858 2.09367C22.2701 1.46061 21.5091 0.987471 20.669 0.715353C19.6949 0.347546 18.6618 0.160706 17.6206 0.164025C15.9168 0.0110423 14.2051 -0.034992 12.4955 0.0261926ZM12.4955 2.24299C14.1591 2.1803 15.8251 2.22635 17.4828 2.38082C18.2867 2.37104 19.0854 2.51207 19.8374 2.79662C20.8748 3.28012 21.7085 4.11386 22.1921 5.15125C22.4769 5.90396 22.6179 6.70344 22.6078 7.50818C22.6078 7.98202 22.6277 8.33587 22.6524 8.77472V8.77474V8.77476V8.77478C22.6927 9.49118 22.7457 10.4341 22.7457 12.4954C22.8085 14.1598 22.7624 15.8265 22.6078 17.4849C22.6176 18.2889 22.4766 19.0876 22.1921 19.8396C21.7081 20.8761 20.8744 21.709 19.8374 22.1919C19.0861 22.4762 18.2883 22.6172 17.4851 22.6077C17.0112 22.6077 16.6574 22.6276 16.2185 22.6522H16.2185H16.2185H16.2185H16.2184H16.2184C15.502 22.6925 14.5591 22.7455 12.4978 22.7455C10.8341 22.8082 9.16818 22.7622 7.51053 22.6077C6.70656 22.6175 5.90788 22.4764 5.15588 22.1919C4.11676 21.7093 3.28129 20.8754 2.79664 19.8373C2.51237 19.086 2.37134 18.2881 2.38084 17.4849C2.38084 17.0111 2.36095 16.6572 2.33628 16.2184C2.29601 15.502 2.24301 14.559 2.24301 12.4977C2.18032 10.8341 2.22636 9.16811 2.38084 7.51048C2.37106 6.70651 2.51209 5.90784 2.79664 5.15584C3.03907 4.64463 3.36691 4.17851 3.76606 3.77752C4.0894 3.29464 4.58063 2.94914 5.14439 2.8081C5.89639 2.52356 6.69507 2.38252 7.49904 2.39231C9.15949 2.2336 10.8285 2.18372 12.4955 2.24299ZM7.95903 7.95898C9.16014 6.75788 10.7971 6.09537 12.4955 6.12297C16.0149 6.12297 18.868 8.97601 18.868 12.4954C18.868 16.0148 16.0149 18.8678 12.4955 18.8678C8.97607 18.8678 6.12301 16.0148 6.12301 12.4954C6.09541 10.797 6.75793 9.16008 7.95903 7.95898ZM12.4955 16.6533C11.3869 16.6735 10.3178 16.2418 9.53395 15.4576C8.75013 14.6733 8.31905 13.604 8.33983 12.4954C8.31968 11.3872 8.75104 10.3185 9.53479 9.53472C10.3185 8.75098 11.3873 8.31962 12.4955 8.33977C13.6037 8.31962 14.6725 8.75098 15.4562 9.53472C16.2399 10.3185 16.6713 11.3872 16.6512 12.4954C16.6713 13.6036 16.2399 14.6723 15.4562 15.4561C14.6725 16.2398 13.6037 16.6712 12.4955 16.651V16.6533ZM17.6229 5.84501C17.6229 5.00385 18.3048 4.32196 19.1459 4.32196C19.984 4.32944 20.6615 5.00697 20.669 5.84501C20.669 6.68616 19.9871 7.36805 19.1459 7.36805C18.3048 7.36805 17.6229 6.68616 17.6229 5.84501Z" fill="#1E2F67"/>
</g>
</svg>
