<svg width="25" height="25" viewBox="0 0 25 25" fill="none" xmlns="http://www.w3.org/2000/svg">
<g id="Group 29">
<path id="Combined Shape" fill-rule="evenodd" clip-rule="evenodd" d="M0 2.27273C0 0.951374 0.930997 0 2.27273 0C3.61446 0 4.54545 0.951374 4.54545 2.27273C4.54545 3.59408 3.61446 4.54545 2.27273 4.54545C0.930997 4.54545 0 3.59408 0 2.27273ZM0 25V6.81818H4.54545V25H0ZM9.09091 7.01872V25H13.6533V16.143C13.6533 13.5027 15.0161 11.5642 17.2973 11.5307C19.2526 11.5307 20.4376 12.9345 20.4376 15.2072V25H25V13.7032C25 9.49198 22.7188 6.81818 19.1637 6.81818C16.6751 6.8516 14.7791 7.92112 13.6533 10.1604V7.01872H9.09091Z" fill="#1E2F67"/>
</g>
</svg>
