<svg width="211" height="163" viewBox="0 0 211 163" fill="none" xmlns="http://www.w3.org/2000/svg">
<g opacity="0.848476">
<path opacity="0.15" d="M144.444 173.864C85.9201 174.708 45.3508 151.064 55.71 118.167C65.3067 87.691 124.2 21.0401 155.804 58.4323C202.547 113.736 256.366 96.046 254.247 123.189C252.128 150.332 202.967 173.021 144.444 173.864Z" fill="#1E2F67"/>
<path opacity="0.15" d="M47.2277 78.4546C53.0783 22.4675 133.332 1.94425 132.266 54.5392C131.53 90.8688 156.184 110.088 194.515 134.682C223.512 153.288 163.952 199.54 55.8867 174.804C26.8341 165.931 22.9573 122.793 47.2277 78.4546Z" fill="#3171DE"/>
<path opacity="0.15" d="M30.0144 76.6824C75.416 -5.37455 164.83 210.825 51.9084 176.798C15.324 165.774 5.52154 120.95 30.0144 76.6824Z" fill="#69E1E0"/>
</g>
</svg>
