<svg width="204" height="141" viewBox="0 0 204 141" fill="none" xmlns="http://www.w3.org/2000/svg">
<g opacity="0.848476">
<path opacity="0.15" d="M143.63 -32.5964C85.1061 -33.4404 44.5367 -9.79639 54.8959 23.101C64.4926 53.5766 123.386 120.228 154.989 82.8353C201.733 27.5318 255.552 45.2215 253.433 18.0783C251.314 -9.06478 202.153 -31.7532 143.63 -32.5964Z" fill="#3171DE"/>
<path opacity="0.15" d="M46.4137 62.813C52.2642 118.8 132.518 139.323 131.452 86.7284C130.716 50.3988 155.37 31.18 193.701 6.58567C222.698 -12.0201 163.138 -58.2727 55.0727 -33.5365C26.02 -24.663 22.1433 18.4743 46.4137 62.813Z" fill="#98C93C"/>
<path opacity="0.15" d="M29.2004 64.5852C74.602 146.642 164.016 -69.5579 51.0944 -35.5305C14.51 -24.5059 4.70751 20.3176 29.2004 64.5852Z" fill="#69E1E0"/>
</g>
</svg>
