<svg width="31" height="25" viewBox="0 0 31 25" fill="none" xmlns="http://www.w3.org/2000/svg">
<g id="Group 27">
<path id="Combined Shape" fill-rule="evenodd" clip-rule="evenodd" d="M2.42188 0.967915C5.49677 4.84736 10.0585 7.28434 15.0156 7.69577C14.5635 5.80771 15.0215 3.81843 16.2549 2.3123C17.4883 0.80617 19.3572 -0.0457554 21.3125 0.00679324C23.1313 -0.0773639 24.8977 0.623652 26.1562 1.92904C27.5747 1.89535 28.9402 1.38734 30.0312 0.487354C29.6321 1.84885 28.778 3.03514 27.6094 3.85128C28.8088 3.85782 29.9851 3.52437 31 2.89016C30.3612 4.41123 29.1425 5.62031 27.6094 6.25409C27.8727 11.0517 26.1679 15.7508 22.8831 19.2813C19.5983 22.8119 15.0131 24.8732 10.1719 24.996C6.56606 25.0722 3.02096 24.0673 0 22.1126C3.22991 22.1491 6.40972 21.3189 9.20312 19.7098C6.6623 19.3143 4.48475 17.694 3.39062 15.3847C4.38144 15.4104 5.36801 15.2473 6.29688 14.9042C3.45857 14.0103 1.38753 11.582 0.96875 8.65689C1.86339 9.16592 2.85144 9.49268 3.875 9.61801C1.30291 7.48692 0.685468 3.81143 2.42188 0.967915Z" fill="#1E2F67"/>
</g>
</svg>
